/* XPM */
static char *_afbb427101c47bffe4a1fe521685a8aVLpmdVsEasPSmgBR[] = {
/* columns rows colors chars-per-pixel */
"64 64 202 2 ",
"   c None",
".  c #0D0E0D",
"X  c #0C0708",
"o  c #130D0D",
"O  c #1A0B0C",
"+  c #15120E",
"@  c #1A150E",
"#  c #151212",
"$  c #1B1512",
"%  c #1C1814",
"&  c #1C1B1A",
"*  c #191918",
"=  c #251213",
"-  c #291715",
";  c #221D16",
":  c #251C1A",
">  c #2B1D1D",
",  c #351718",
"<  c #1D201E",
"1  c #26241F",
"2  c #2D231E",
"3  c #2F291D",
"4  c #2C2315",
"5  c #30261F",
"6  c #322A1F",
"7  c #1F1F22",
"8  c #2A1E21",
"9  c #242325",
"0  c #2B2423",
"q  c #2C2A24",
"w  c #26262A",
"e  c #292628",
"r  c #272829",
"t  c #2C2C2C",
"y  c #262A26",
"u  c #322524",
"i  c #332C21",
"p  c #3D2D22",
"a  c #3A2A27",
"s  c #2D332C",
"d  c #363226",
"f  c #3D3625",
"g  c #33342D",
"h  c #393228",
"j  c #36392F",
"k  c #3D3A2E",
"l  c #383E24",
"z  c #2C2E30",
"x  c #2D3030",
"c  c #343632",
"v  c #363B35",
"b  c #3A3D35",
"n  c #373D38",
"m  c #3A3F38",
"M  c #411C1E",
"N  c #452623",
"B  c #4C2324",
"V  c #422C25",
"C  c #4B2C27",
"Z  c #4B2D2A",
"A  c #522426",
"S  c #552728",
"D  c #552A29",
"F  c #5B2C2B",
"G  c #4E312A",
"H  c #443625",
"J  c #54312C",
"K  c #5C312D",
"L  c #553924",
"P  c #443531",
"I  c #433D34",
"U  c #5C3430",
"Y  c #61312E",
"T  c #3C433C",
"R  c #3F4037",
"E  c #38583C",
"W  c #41412F",
"Q  c #5B4D2D",
"!  c #574524",
"~  c #42453B",
"^  c #494638",
"/  c #444A3F",
"(  c #4D4B3E",
")  c #484635",
"_  c #5E4C31",
"`  c #4C523F",
"'  c #5B543C",
"]  c #634225",
"[  c #6C4626",
"{  c #664C2C",
"}  c #6F4B28",
"|  c #73542D",
" . c #755E2B",
".. c #645637",
"X. c #7D5F30",
"o. c #616C3D",
"O. c #786638",
"+. c #7F703D",
"@. c #444C42",
"#. c #484940",
"$. c #504F41",
"%. c #475045",
"&. c #4B5346",
"*. c #4C5649",
"=. c #4E584B",
"-. c #4E5847",
";. c #535243",
":. c #555B45",
">. c #525D4E",
",. c #5A5A4B",
"<. c #545547",
"1. c #555D53",
"2. c #635B41",
"3. c #56604E",
"4. c #5F6043",
"5. c #566251",
"6. c #596554",
"7. c #5D6956",
"8. c #5E6C58",
"9. c #586957",
"0. c #5D7E5B",
"q. c #507149",
"w. c #6D6B48",
"e. c #756945",
"r. c #657A47",
"t. c #626B55",
"y. c #616E5A",
"u. c #686B50",
"i. c #6F7354",
"p. c #63715C",
"a. c #69755D",
"s. c #6E785E",
"d. c #717857",
"f. c #777847",
"g. c #687660",
"h. c #6C7A63",
"j. c #6A7669",
"k. c #6C786B",
"l. c #717D65",
"z. c #856E42",
"x. c #897B43",
"c. c #538156",
"v. c #7E864E",
"b. c #698C59",
"n. c #788951",
"m. c #60945D",
"M. c #7C965B",
"N. c #5B8D67",
"B. c #738166",
"V. c #76846A",
"C. c #7A866B",
"Z. c #7B8669",
"A. c #5CAD7C",
"S. c #5DA576",
"D. c #5EB17E",
"F. c #68AB75",
"G. c #64AD78",
"H. c #67B17B",
"J. c #9F8136",
"K. c #A9893C",
"L. c #99954C",
"P. c #819E5F",
"I. c #899755",
"U. c #96924C",
"Y. c #A58D42",
"T. c #AE9749",
"R. c #838B6B",
"E. c #898E69",
"W. c #8D966E",
"Q. c #818F71",
"!. c #859274",
"~. c #899676",
"^. c #8E9B7A",
"/. c #8D9977",
"(. c #919E7C",
"). c #95A27E",
"_. c #98A47E",
"`. c #C5AF57",
"'. c #5CB281",
"]. c #62B480",
"[. c #96A480",
"{. c #99A782",
"}. c #9CAA84",
"|. c #A4AF86",
" X c #A1AE88",
".X c #A5B38B",
"XX c #A9B78E",
"oX c #ABB98F",
"OX c #AAB487",
"+X c #ADBB91",
"@X c #B1BF94",
"#X c #B1BA8B",
"$X c #B4C296",
"%X c #B9C79A",
"&X c #BCCA9C",
"*X c #C0CE9F",
"=X c #C5D3A2",
"-X c #C9D5A4",
";X c #CBD8A6",
":X c #CEDCA9",
">X c #D1DFAB",
",X c #D2E0AC",
/* pixels */
"                                                                                                                                ",
"                                                                                                                                ",
"                                                                                                                                ",
"                                                                                                                                ",
"                                                                                                                                ",
"                                                                                                                                ",
"                                                                                                                                ",
"                                                                                                                                ",
"                                                                                                                                ",
"                                                                                                                                ",
"                                                                                                                                ",
"                                                            4 3 3                     % ; : ; ; E m.r.                          ",
"                                                          W f f w.w.' R.R.`         o > 8 > f O.I.L.U.n.b.r.o.                  ",
"                                                  t.~./.^.Q.^ f E.E.).|.i.        o : > > p O.Y.L.P.G.'.'.].H.b.l               ",
"                                                  y t.!.V.t.<...w.w.i.d.d.4.      X $ > > _ x.U.I.D.'.'.'.A.S.A.q.              ",
"                                                  3.s.t.;._ O.x.O.| ..R._.Q.a.:.      o - { | X.P.'.'.'.'.A.S.'.c.              ",
"                                              j V. X Xu.d Q K.`.T.X.H t..XXX}.[.s.-./ v p [ [ } U.F.A.'.'.'.'.A.r.              ",
"                                            :.C.oX=X:X.X) f  .K.J.! f Z.&X;X&X%X}.C.6.7.0.c...} } n.G.A.'.G.F.M...$             ",
"                                          t.C..X&X,X,X>X#Xi.' z.O.2.!.=X:X,X:X;X$X.X^.h.N.A.N.{ [ | +.f.I.f.O.Q 4               ",
"                                  ` / -.h.V.{.%X&X>X,X;X,X:X-X=X-X;X:X,X,X,X%X%X;X$X{.).t.9.6.) C L ! Y ! L f :                 ",
"                                a.B.p.h.(.^.}.}.+X>X:X&X:X,X,X,X>X>X>X>X&X;X&X.X;X*X~.l.h.y.y.~ 4 > > 2 2 8 : o                 ",
"                              a.h.p.y.p.!.).}.{.oX:X%XXX$X&X=X,X:X@X&X:XXX$X+X}..X.X~.B.C.p.6.T v i 0 9 e 8 #                   ",
"                            / s.a.p.8.7.!.!.!.~.}.$X X+X.X}.+X=XXX}. XXX{.{.{.[.}.^.B.!.B.8.&.T T T n v c 7                     ",
"                          -.p.p.y.7.3.*.C.V.h.a.~.~.~.[.}.}.}.}.}..X.X{.!.V.).V.^.!.8.a.p.3.T T T T T c 9                       ",
"                        s 7.8.>.%.*.T T 8.g.a.5.p.p.7.B.^.~.V.^.(.{.[.Q.C.V.h.h.l.g.8.1.6.~ v c s 9                             ",
"                        &.6.>.T T T T T T 5.9.=.=.8.3.p.g.h.8.h.l.[.~.h.^.V.8.p.y.y.*.#.@.s <                                   ",
"                    r b @.@.T T T T T T T @.=.T *.8.%.8.p.p.p.p.p.C.l.h.V.p.p.p.p.>.Z Z v                                       ",
"                  u I I W b v R T T T T T T T T T 5.=.5.p.p.8.8.y.p.p.p.y.p.8.7.t.I B A >                                       ",
"                N J J V h a 6 d v m T T T T T T T @.5.5.8.7.5.5.p.y.p.8.8.7.>.5.( N A M O                                       ",
"              - J U U G p p i 6 6 d b v n T T T T T / @.%.6.6.6.>.8.8.>.>.=.@.P B A A B =                                       ",
"              - D G G J V i i 6 6 5 3 # 9 T T *.7.5.%.@.T %.5.>.@.=.@.#.I P Z B S S S S ,                                       ",
"              1 g a u i i i 6 i i 3 $   < v T 8.p.p.8.7./ T T d i h Z D S A S A A D S D M                                       ",
"              < c g g t y 0 q 6 3 4       y %.p.8.8.>.9.>.@.n i i u B A F A A S A S A D B O                                     ",
"              q $.^ ) i q e 9 : #           c 5.8.p.t.y.p.7.&.h 6 u B A S D S F A A F F S =                                     ",
"              ( ,.;.;.h ^ ^ *               * v %.5.5.5.6.5.>.#.I I N A S F Y D S S F F Y ,                                     ",
"            % k ( k d d ;.,.1               . t c n m m T @.7.k.j.y.P N A F F F F F D F F B                                     ",
"            o h ,.;.3 ; k ,.q               o : 0 8 e t t c 1.k.k.*.m V N S Y F F F K Y F F -                                   ",
"              q ,.:.q     g s             + 3 > 8 > > > > 0 i =.1.c n c N A Y D F Y Y F U F -                                   ",
"                s W k @                   + 2 6 5 2 5 > > > - 0 u 8 z x a B F F J D Y F S D &                                   ",
"                                            + > > 3 u 6 i i i 5 u 8 8 0 u N C K Z Z F F Z u #                                   ",
"                                              % 5 6 2 5 2 u 5 5 2 5 > 8 w e u N V G D G u 9 .                                   ",
"                                              $ 5 3 3 0 2 0 0 0 > 8 8 8 w w w e q u 6 q w 9 .                                   ",
"                                              + : > 2 > > > 0 6 6 6 u 0 8 w w w r r 0 w w 7                                     ",
"                                                  o > q 6 6 6 6 i 6 i e e z z w w r w w w $                                     ",
"                                                    3 i i 6 i 6 6 i 6 q i 0 z z t t e w 9 #                                     ",
"                                                    4 i 6 i 6 i 6 6 6 6 6 q 8 e c x 8 8 : o                                     ",
"                                                    4 6 d 6 5 5 6 6 6 3 3 0 > 8 9 e > > +                                       ",
"                                                    % 6 6 6 2 5 i i i i i > > ; * & = #                                         ",
"                                                      % > 2 5 i 6 d 6 6 i 4 %                                                   ",
"                                                        o 0 3 5 6 6 i 6 : +                                                     ",
"                                                          ; 0 2 2 4 3 > +                                                       ",
"                                                            * q :                                                               ",
"                                                              ;                                                                 ",
"                                                                                                                                ",
"                                                                                                                                ",
"                                                                                                                                ",
"                                                                                                                                ",
"                                                                                                                                ",
"                                                                                                                                ",
"                                                                                                                                ",
"                                                                                                                                ",
"                                                                                                                                ",
"                                                                                                                                ",
"                                                                                                                                "
};
