/* XPM */
static char *_7024d728cec47f0f639ed93ce8b3bb3Sb76YeV1d8cP6oIN[] = {
/* columns rows colors chars-per-pixel */
"64 64 226 2 ",
"   c None",
".  c #0E0907",
"X  c #140C0B",
"o  c #180E0E",
"O  c #1C130E",
"+  c #1C180C",
"@  c #190E11",
"#  c #1C1313",
"$  c #1E1A1B",
"%  c #1C1915",
"&  c #221412",
"*  c #251A15",
"=  c #261619",
"-  c #221B1B",
";  c #2C1C1C",
":  c #28171B",
">  c #361C1A",
",  c #23221E",
"<  c #2C291C",
"1  c #38271D",
"2  c #36321F",
"3  c #1E1C21",
"4  c #2E1D20",
"5  c #211E22",
"6  c #301C20",
"7  c #242224",
"8  c #25252A",
"9  c #2A2B2E",
"0  c #292724",
"q  c #352224",
"w  c #3B2425",
"e  c #3B2A2C",
"r  c #382826",
"t  c #3C3A25",
"y  c #393529",
"u  c #373935",
"i  c #2B2C32",
"p  c #43261F",
"a  c #47331B",
"s  c #442523",
"d  c #422A2A",
"f  c #4D2B2A",
"g  c #482824",
"h  c #552D2C",
"j  c #542B28",
"k  c #433D2B",
"l  c #453C26",
"z  c #5A312E",
"x  c #573827",
"c  c #562F31",
"v  c #592F30",
"b  c #453A34",
"n  c #5C3234",
"m  c #563735",
"M  c #643637",
"N  c #6A3831",
"B  c #3C4537",
"V  c #59401D",
"C  c #4B432A",
"Z  c #584528",
"A  c #424B3A",
"S  c #484639",
"D  c #554A36",
"F  c #58543A",
"G  c #43503F",
"H  c #6B5B2A",
"J  c #655A36",
"K  c #6A403C",
"L  c #6F632B",
"P  c #74692F",
"I  c #786638",
"U  c #7E743B",
"Y  c #3D3F40",
"T  c #3E4A43",
"R  c #464B47",
"E  c #445242",
"W  c #4E5D4A",
"Q  c #4B5446",
"!  c #565547",
"~  c #4B5B52",
"^  c #52514D",
"/  c #645846",
"(  c #765C49",
")  c #695D56",
"_  c #73504C",
"`  c #5C6C57",
"'  c #566657",
"]  c #5C715D",
"[  c #57634E",
"{  c #676A4A",
"}  c #787448",
"|  c #666858",
" . c #736E55",
".. c #697255",
"X. c #787858",
"o. c #5D5E61",
"O. c #576962",
"+. c #5D7367",
"@. c #776D68",
"#. c #627463",
"$. c #677A68",
"%. c #777A68",
"&. c #687978",
"*. c #707B7C",
"=. c #757D72",
"-. c #626E77",
";. c #887C3A",
":. c #9B7E38",
">. c #8A692F",
",. c #995556",
"<. c #8D4446",
"1. c #817948",
"2. c #896759",
"3. c #857B5A",
"4. c #8F6F4D",
"5. c #897C72",
"6. c #A86A67",
"7. c #B96967",
"8. c #D47157",
"9. c #CD746A",
"0. c #D17A72",
"q. c #7F8157",
"w. c #69826E",
"e. c #658066",
"r. c #788569",
"t. c #6C8577",
"y. c #748B75",
"u. c #758C7B",
"i. c #788D7C",
"p. c #778476",
"a. c #7F937E",
"s. c #9A853B",
"d. c #B69739",
"f. c #A38132",
"g. c #8D8442",
"h. c #898249",
"j. c #988B44",
"k. c #848459",
"l. c #938150",
"z. c #A49545",
"x. c #A48E55",
"c. c #828C6B",
"v. c #8B8869",
"b. c #979869",
"n. c #828773",
"m. c #86957B",
"M. c #999D75",
"N. c #958C70",
"B. c #A6976A",
"V. c #AB886D",
"C. c #9CA27A",
"Z. c #ABA071",
"A. c #C18253",
"S. c #C6B559",
"D. c #D4BE5D",
"F. c #CF8D71",
"G. c #CCB065",
"H. c #727985",
"J. c #827C80",
"K. c #738E84",
"L. c #7B8C83",
"P. c #7B9383",
"I. c #7A968B",
"U. c #77958A",
"Y. c #859C8B",
"T. c #889888",
"R. c #999689",
"E. c #8B9799",
"W. c #919594",
"Q. c #8C8889",
"!. c #A59F99",
"~. c #B29A92",
"^. c #B09289",
"/. c #8DA18D",
"(. c #93A58B",
"). c #9BAA8E",
"_. c #97A588",
"`. c #8DA292",
"'. c #86A69A",
"]. c #8AA697",
"[. c #92A594",
"{. c #95A995",
"}. c #9CAC93",
"|. c #95AC9A",
" X c #9BAD9C",
".X c #9AA497",
"XX c #9BB09C",
"oX c #B7AB88",
"OX c #A7AC97",
"+X c #A6B49C",
"@X c #AEA78E",
"#X c #939AA5",
"$X c #99B4A5",
"%X c #9DB4AC",
"&X c #B8AAA8",
"*X c #A2B5A3",
"=X c #A8BBAB",
"-X c #B4B1A8",
";X c #B8BDB9",
":X c #A8A5A0",
">X c #D29489",
",X c #E09584",
"<X c #C5B78C",
"1X c #CDB5B0",
"2X c #AAC5BA",
"3X c #BBCABA",
"4X c #B6C7B7",
"5X c #ADC0AF",
"6X c #C7C290",
"7X c #B7C9C2",
"8X c #BDD5CC",
"9X c #BFD3C6",
"0X c #C8C9C4",
"qX c #CCD8C9",
"wX c #D2D7C6",
"eX c #C9D7D2",
"rX c #D5DCD8",
"tX c #CFE2D9",
"yX c #D6E3D8",
"uX c #E5E9DD",
"iX c #DCEAE3",
"pX c #E4EEE5",
"aX c #E2E3E1",
"sX c #EBF3EC",
"dX c #E6F1E7",
"fX c #F0F7F1",
/* pixels */
"                                                                                                                                ",
"                                                                                                                                ",
"                                                                                                                                ",
"                                                                                                                                ",
"                                                                                                                                ",
"                                                                                                                                ",
"                                                                                                                                ",
"                                        oXoX@X                                                                                  ",
"                                    Z.x.B.3.1.X.                                                                                ",
"                                  <XZ.4.I I 4.N.-X      aXaX                                                                    ",
"                            8.F.>X,X>X2.x H >./ p.:X0X0X0XeX;XoX<X6X                                                            ",
"                          8.8.9.9.9.9.9.N a x 1 J -XaXrXR.R.R.!.wXwXuXwX                                                        ",
"                        F.A.V.^.~.^.6.6.<.j a D 5.!.&X-X .) | n.3XqXpXwX                                                        ",
"                        D.V.R.R.W.W.E.@.( %.y.T.;X;XQ.@.D B u |  XyXfXsX                                                        ",
"                        x.v.r.p.*.*.H.*.p.`.$X4XrX7Xn.! 2 < u ` (.yXfXsXsX                                                      ",
"                        1.X.n.m.K.L.u.Y.].].|.0X0XQ.F J D t A %.0XdXsXsXsXiX                                                    ",
"                          k.r.r.t.U.I././.I.|.9X=X%.U U } ..e.+XyXiXdXdXrX0X                                                    ",
"                          k.X.$.w.u.u.u.y.y.[.2X(.q.s.U j.b.).3XqXyXpXiX1X>X1X                                                  ",
"                            ..| ] +.+.e.e.w.`.%XC.g.s.U j.C.+X3X9XqXrXqX~.7.&XrXiX                                              ",
"                            { W [ ' W ` ] w.E.W.M.s.h.s.g.C.+X4X2X3X9X7XN.,.:X7XiXdX                                            ",
"                              Q G G E W [ +.T.[.B.g.h.} k.C.+X=X*X5X4X}.( _ W.7X8XtXtX                                          ",
"                                G B G G G ` Q.).M.h.b.m.}.}.}.{.$X5X*Xn.K K p.%X7X8X8X                                          ",
"                                    B B B @.T.)._.v.m.(.XX{./.{.$X XT.) M n +.I.2X7X8X8X                                        ",
"                                        B =.m.).).m.{.{.+X(.{.|.[./.%.M M b W U.$X2X7X7X                                        ",
"                                          %.y.)._.T.{.XX*X|.|.[.Y.a.^ M M f R t.I.2X2X2X'.                                      ",
"                                          ..c.)._.(.{.XXXX|.{.Y.u.$.m M M d R &.U.I.I.I.'.                                      ",
"                                          ..c.)._.{.{. X`.`.Y.a.$.! m n n d R -.K.K.K.U.I.                                      ",
"                                            c._._.).[.{.`.Y.a.w.Q m c m c e R ' +.-.&.K.K.#X                                    ",
"                                            r.m.(./.`.`.Y.P.u.#.S c n c f r R ~ O.O.O.O.&.E.#X                                  ",
"                                            q.y.m./.I./.P.u.$.W j v n h s , u E ~ ' O.O.-.H.J.                                  ",
"                                            { q.a.a.a.a.y.w.` m f h n z w % 0 B T T ^ ^ o.o.2.6.                                ",
"                                            m [ r.y.y.w.$.] Q x h v z z 1 + 3 9 u Y ^  .3.2.,.,.                                ",
"                                        Z Z l D ..$.$.#...Q d z z n v j > $   0 r k H J I ,.<.                                  ",
"                                        t 2 1 r B ' ` ` E y g z z n z s & -     p j x l p M N                                   ",
"                                        k r e 4 , G W A d 1 j z h M j > & <     p j N Z x x b                                   ",
"                                      j.F b u 0 % t D 1 > p f j v j > & + +         p C C t A                                   ",
"                                      z.H r 7 - * k D > > g j j j w = 5 # #         + % % 2 !                                   ",
"                                    S.z.H + O J 1.D S J C > s s : @ $ 5 3 3           < 2 l F                                   ",
"                                  D.S.j.L 2 > I 1./ F 1.{ * & & & & # - $ %           < l l C                                   ",
"                                  d.d.s.P   w D  .T.i.{ 1 . . X & ; 6 : : 4                                                     ",
"                                  >.s.s.L   w / R.5X/.+.r # . X : w w w w e                                                     ",
"                                    s.s.L   q ) .X|.u.O.r -   @ : w d d e e                                                     ",
"                                    >.L Z   e ! ' ~ b u 7 4   o = 6 6 q r q e                                                   ",
"                                            * = ; 7 4 4 6     . X @ & @ & &                                                     ",
"                                    :.f.      O O # # @         X @ 5 # X O                                                     ",
"                                                  7 - 3         3 8 8 3 .                                                       ",
"                                                  , $ 5           8 3 3                                                         ",
"                                                    % 5           i 8                                                           ",
"                                                    , 7           9 9                                                           ",
"                                                      7           9                                                             ",
"                                                      0           i                                                             ",
"                                                                                                                                ",
"                                                                                                                                ",
"                                                                                                                                ",
"                                                                                                                                ",
"                                                                                                                                ",
"                                                                                                                                ",
"                                                                                                                                ",
"                                                                                                                                ",
"                                                                                                                                ",
"                                                                                                                                ",
"                                                                                                                                ",
"                                                                                                                                ",
"                                                                                                                                "
};
