/* XPM */
static char *_14d5b6cb41442e4eae2e88f49366eb9ITUz4i3C1RP2zWSR[] = {
/* columns rows colors chars-per-pixel */
"64 64 248 2 ",
"   c None",
".  c #0B0A09",
"X  c #120C0B",
"o  c #1B0F0E",
"O  c #18130E",
"+  c #1B1413",
"@  c #1D1A1B",
"#  c #191515",
"$  c #130F11",
"%  c #231413",
"&  c #2A1514",
"*  c #211A1C",
"=  c #2C1B1C",
"-  c #291A15",
";  c #341C1A",
":  c #200E0D",
">  c #2A2519",
",  c #352C1C",
"<  c #3B331E",
"1  c #1C1C26",
"2  c #241E23",
"3  c #321E22",
"4  c #282628",
"5  c #352225",
"6  c #3C262A",
"7  c #3A262A",
"8  c #2C3329",
"9  c #3A3624",
"0  c #2C2A35",
"q  c #282735",
"w  c #342D37",
"e  c #2D3337",
"r  c #393839",
"t  c #192011",
"y  c #47381C",
"u  c #4A301D",
"i  c #453A29",
"p  c #442C32",
"a  c #492E33",
"s  c #493537",
"d  c #55373C",
"f  c #512F2A",
"g  c #763335",
"h  c #394538",
"j  c #35412B",
"k  c #47432B",
"l  c #59492A",
"z  c #4A4536",
"x  c #554B36",
"c  c #47533E",
"v  c #58523B",
"b  c #615838",
"n  c #6D522C",
"m  c #746436",
"M  c #74622B",
"N  c #664E1A",
"B  c #373744",
"V  c #33364E",
"C  c #433C4A",
"Z  c #563D46",
"A  c #693C42",
"S  c #743E46",
"D  c #3C4746",
"F  c #3F4653",
"G  c #45494A",
"H  c #475748",
"J  c #5B5A43",
"K  c #474956",
"L  c #455452",
"P  c #4C5A54",
"I  c #4D5D5C",
"U  c #4B5356",
"Y  c #545858",
"T  c #5A4A4E",
"R  c #644547",
"E  c #7B464B",
"W  c #665A46",
"Q  c #79584A",
"!  c #764953",
"~  c #695858",
"^  c #785C59",
"/  c #556657",
"(  c #556657",
")  c #68634C",
"_  c #686954",
"`  c #766659",
"'  c #68735C",
"]  c #787659",
"[  c #766E4B",
"{  c #575A64",
"}  c #4A5961",
"|  c #745C61",
" . c #546562",
".. c #5A6D69",
"X. c #576965",
"o. c #5E726C",
"O. c #5B7067",
"+. c #546767",
"@. c #666269",
"#. c #61756E",
"$. c #677A68",
"%. c #787864",
"&. c #666673",
"*. c #627671",
"=. c #657A73",
"-. c #697D7A",
";. c #697C75",
":. c #70696C",
">. c #8A3A3C",
",. c #8A5537",
"<. c #8F712C",
"1. c #A8773B",
"2. c #8A474B",
"3. c #944A4D",
"4. c #A34A49",
"5. c #B75959",
"6. c #AA5350",
"7. c #927448",
"8. c #B26C51",
"9. c #B15767",
"0. c #887467",
"q. c #B5726C",
"w. c #9F5565",
"e. c #C3625D",
"r. c #C66769",
"t. c #C76A71",
"y. c #C25F5F",
"u. c #7D833D",
"i. c #788469",
"p. c #6D827B",
"a. c #6D8476",
"s. c #768A78",
"d. c #7A907E",
"f. c #6D816C",
"g. c #4D9061",
"h. c #988236",
"j. c #B49838",
"k. c #AB8B37",
"l. c #978648",
"z. c #948854",
"x. c #A89654",
"c. c #B19353",
"v. c #B5A249",
"b. c #B5A357",
"n. c #86896A",
"m. c #97956D",
"M. c #888C74",
"N. c #98887A",
"B. c #8B9677",
"V. c #929775",
"C. c #AD9174",
"Z. c #ADA879",
"A. c #B4AD70",
"S. c #94AE6A",
"D. c #C49349",
"F. c #CFB250",
"G. c #E3BB5C",
"H. c #DCBB6B",
"J. c #C8B974",
"K. c #CFB471",
"L. c #E0B965",
"P. c #DBC452",
"I. c #D8C979",
"U. c #CEC570",
"Y. c #E6D276",
"T. c #E3CD57",
"R. c #877F80",
"E. c #6F8482",
"W. c #758A84",
"Q. c #7D9382",
"!. c #7B938B",
"~. c #7C978A",
"^. c #62BA94",
"/. c #859A89",
"(. c #849C93",
"). c #9B9797",
"_. c #96908A",
"`. c #A09B9A",
"'. c #8BA393",
"]. c #8BA59A",
"[. c #87A296",
"{. c #95A897",
"}. c #9BA993",
"|. c #B8B587",
" X c #AEB08D",
".X c #98ABA4",
"XX c #9BB3A4",
"oX c #9DB7AB",
"OX c #A5B9A8",
"+X c #A5AFA9",
"@X c #959FA3",
"#X c #C5B584",
"$X c #C7B997",
"%X c #CFAB9B",
"&X c #DDB394",
"*X c #ACC4B5",
"=X c #B7C8B7",
"-X c #B4C7AC",
";X c #B9DEA6",
":X c #D6C987",
">X c #D9CA95",
",X c #D9D595",
"<X c #CFCE94",
"1X c #E5DB89",
"2X c #E5D79A",
"3X c #EAE388",
"4X c #ECE596",
"5X c #F4E68D",
"6X c #C5C7A8",
"7X c #CCD4AB",
"8X c #C5CCB7",
"9X c #C6D2B7",
"0X c #D5D7B7",
"qX c #D9D2AC",
"wX c #E4DAA4",
"eX c #E5D3B2",
"rX c #DDE2B1",
"tX c #EAE5A9",
"yX c #F2EBA5",
"uX c #F5F1AC",
"iX c #EAE7B7",
"pX c #F8F4B7",
"aX c #F0EDB7",
"sX c #B5CDC3",
"dX c #BCD0C5",
"fX c #ACEEDA",
"gX c #CCDBCC",
"hX c #C8D6C5",
"jX c #D4DBC8",
"kX c #CADDD3",
"lX c #D2DFD4",
"zX c #D9E1CA",
"xX c #D9E5D8",
"cX c #D4EBD3",
"vX c #E7E8C7",
"bX c #F7F5C6",
"nX c #E6EADB",
"mX c #F6F5D5",
"MX c #EDF1D1",
"NX c #E4ECE3",
"BX c #EDF3EB",
"VX c #EEF3E2",
"CX c #F2F6EE",
"ZX c #F5F7EB",
"AX c #F6F9F4",
"SX c #F7F9F5",
"DX c #F0EEE0",
"FX c #D7E8D1",
/* pixels */
"                                                                                                                                ",
"                                                                                                                                ",
"                                                                                                                                ",
"                                                                                                                                ",
"                                                                                                                                ",
"                                                                                                                                ",
"                                                                                                                                ",
"                                                                                                                                ",
"                                                                                                                                ",
"                                                                                                                                ",
"                                                                          Y.I.I.                                                ",
"                                                                      ZXvXwX>X#XZ.|.          cX                                ",
"                                                            :X$XeXvX0X0X0X0XzXjXjX8X$XqX    ;X;XcXbXmXmX                        ",
"                                                          tX>X0XMXaX,XJ.A.|.9X0XjXzX0X$XeXiXwXyXuXuXuXpXpXcX                    ",
"                                    2X2XtXmXmXmXmXmXbXvXiXwXtXpXpXaXiXiXzXvXjXzXnXDXZX8X%X%X2XyX3X3X3X3XrXrXfXfX                ",
"                              Y.L.H.H.K.wXaXaXyXwX2X2X2X,X2XpXbXbXbXvX0X7X;X0XvXDXSXSXSXnX8X#X>X1XT.U.U.U.U.;XfX                ",
"                      5XyXyX5XH.D.D.c.D.:X>X,X:X:X:XI.,XtXpXpXbXvX6X X X X7XiXMXmXZXSXZXSXSXjXC.<XwXb.v.v.b.S.^.                ",
"                  G.G.H.I.K.K.F.k.1.1.h.A.J.J.K.J.J.<XpXpXpXtX6XV.M.B. X<X,XwXMXmXDXDXZXZXCXSXNXnXAXvXA.x.l.u.g.                ",
"                5XF.D.c.x.x.x.l.<.,.,.,.z.x.b.b.A.1XpXpXpXtXZ.n.n.m.|.#XK.&X&XiXnXnXjXOXjXDXCXAXSXSXSXAXNX6Xm.                  ",
"            5X1XK.D.<.n n n m M n l y f l <.l.x.,XpXpXaX<Xm.] m. X6X%XeXeX&X%X6X0XzXlX0XhXlXnXBXAXAXSXSXSXSXAXSX                ",
"          F.L.K.x.l.m l u k             y l l.,XpXuXuXwX|.|.$X8XjXnXnXxXxXxXxXkX8X8XhXjXjXgXjXxXNXNXCXAXBXCXAXAXSX              ",
"        F.D.1.7.m b b 7.l.          v.k.      uXuXyXtX7XeXvXjX0XjXvXnXxXxXNXxXkXkX=X+X=X0XhXhX=XgXcXxXNXBXBXNXBXCXAXSX          ",
"        F.1.g u i l   P.F.h.        T.j.h.  yXuXyXtXiXvXvX0X6X6X9XkXgXkXkXkXkXdXdXsXOX}.OX=X=X-XOX=X=XgXxXNXxXxXNXBXBXBX        ",
"      J.z.m l l ) ]   T.F.k.        P.j.h.  4X5XyXwXrXrX0XzXhXhXgXgXgX=XsXsXsXsXsX*XOX'./.}.XX*X+XOXOX=XdXlXxXdXsXkXxXNXNX      ",
"    #XC.[ v   b.l.    P.F.k.        F.<.<.1X1X1X,X<X7X7X8X=X=X=X=X=X*X*X*XoXoX*XOXoX.X].!.s.d.'.{.[.'.XX*X*XdX;X+XOX=XgXlXcX    ",
"    m.[ v     P.j.<.  F.j.m         j.N   :X1X,X<X7X0X;X=X=X-X-XoXXXXXoXoXXXXX].].^.].(.!.E.O.f.Q.B.a.d.{.oXoX*X{./.'.OX*X=X    ",
"  n.] J       F.j.<.    j.<.        k.<.  U.,X,X6X7X9X=XhX=XOX*X*XXXXX].~.~.~.~.W.W.~.W.!.W.a./ / f.f.O.s./.[.{.].~.Q.d.}.XXOX  ",
"  %.)         v.<.                        :X|.|. X X X}.OXOXOXoXXX{.].~.~.~.W.W.p.a.o.a.-.E.p.=./ / ( c H O.d.~./.Q.d.s.s./.'.  ",
"  ' J         j.N                         A.Z._.m.B.B.).].].].!.~.(.~.!.~.p.f...O.+. . .O.o.*.a.o./ D j h h ' f.d.f.s.i.f.d.d.  ",
"  _ W                                   Z.m.m.V.M.i./.'.(.~.!.W.E.p.-.*.o.o.+.I L D F L I +.O.*.f.O.O.D h h H / f.f.f.f.f.i.    ",
"  _                                   S.m.n.m.B.B.M./.(.(./.-... ./ P P P P D D D D D D P I +.o.#.*.f.O.L h c H ( O.( _ ( '     ",
"  _                                   m.V.B./.B.'.}.{.+X+X.X@XR.*.L h h h h h j j h D P P  .+.o.a.#.a.*.g.H c c c c c H c       ",
"                                      B.V.B._.}.`. X+X`.@X`.`.`._.R.&.B 4 8 8 8 h D P I X.O.o.=.a.=.p.p.E.*.I s r 9 8 9         ",
"                                      n.M.B.}.`.`.)._.N.q.q.C.C.C.q.q.w.s 4 q h F I /  .O.f.=.a.p.p.p.p.E.E.-.~ A , O ,         ",
"                                      %.M._._.N.C.C.C.r.q.t.t.t.t.t.t.t.w.T D F I +.O.o.o.=.a.p.p.=.p.p.E.E.E.&.! A % >         ",
"                                      0.%.0.n.8.8.y.e.r.r.t.r.q.t.t.9.9.9.w./  . ...O.o.a.a.*.p.=.*.*.p.E.E.E.-.~ 2.p > 9       ",
"                                      ~ 7.w.8.5.y.y.e.y.5.5.5.6.w.3.3.2.2.2.S U P I  .X.O.#.*.*.*.o.*.*.=.-.-.-.@.! R r P       ",
"                                        ,.6.6.5.9.5.6.4.3.2.2.2.2.! ^ | | | R C D F L P I I  ./ +.+.+.+...o.*.*.&.! 2.J f.      ",
"                                        4.4.4.4.4.3.>.E Q Q ` | @.@.&.&.&.&.U 0 8 e D D G F K U L } } +.} } +...+.T E ~ (       ",
"                                      ,.>.>.>.g g n Q ` :.:.:.&.&.&.{ Y K Y B 4 q e B D F G K K K K K K K } } } } s A E         ",
"                                      >.>.g f f R ~ _ @.&.&.&.{ U U Y X...*.r @ 2 q q q w 0 0 q 0 0 q w w w B C } B f S         ",
"                                        u u u f G Y { { Y U L } o.p.~.~.!.s.C * 2 3 5 0 7 w r r r r s p C w w w V F w d         ",
"                                          l u 6 s G B h U  .p.~.'.'.].(.!.$.) ) J i s i i x v R W R W W Q b v x s B e = 5       ",
"                                              > 8 4 8 I a./.Q.M.d.s.s.$.' v i x ) x > > > > , , , 9 9 < 7 u < i 9 4 e $ :       ",
"                                                N y i _ $.$.' ' J c c v ] n.J > z W > @ @ @ @ @ 2 2 2 4 2 * % + + 1 0           ",
"                                              <.M l ) W k x ) ) b k k v ] %.%.8 < v B q 0 0 w B B C C C B 4 * $ X 1 V           ",
"                                              m y x J v , k ) ) ) x   i W ] %.9 > k 4 4 q 0 w B C K K C 7 3 @ . . 1 V           ",
"                                              ] H k j < > , v v v k > - k J J 4 O O O + + + @ * 1 2 6 p a p *   $ q C           ",
"                                            m.i.( 9 t t     k c l y ; - y k 9 % & 2 3 3 3 3 3 7 3 6 d A Z a     . 1 q           ",
"                                          M.' ( j t O             , ; - - > & = = 3 3 3 p p p a Z Z A A R s     . # q           ",
"                                              j >                   & & : ; ; ; 3 3 3 p p p p a d A Z S A d       1 V           ",
"                                                                    & & & ; ; = 3 3 7 p p p s a a a a C d a       1 B           ",
"                                                                    - % & ; ; ; 3 4 6 6 p s a p p w a a a p       4             ",
"                                                                      X X + - = = 5 6 p 6 6 7 7 6 a d Z Z                       ",
"                                                                      X # $ + % % & = ; 3 3 5 7 p a s a a                       ",
"                                                                      $ @ * @ X o + % % & 3 3 5 3 6 p , ;                       ",
"                                                                        # * * X # # O O % - = - * = = %                         ",
"                                                                        @ @ 2 @ @ @ $ X X o : % % % o                           ",
"                                                                        * + * 4 4 @ # $ X .   : : o                             ",
"                                                                          + $ @ @ @ @ #                                         ",
"                                                                          $ # > + X .                                           ",
"                                                                          X # 4 @ $                                             ",
"                                                                            4 # $                                               ",
"                                                                                                                                "
};
