/* XPM */
static char *_9321a6c41ba40dbdebcae327455f3a04gegTLtV1DCoioCP[] = {
/* columns rows colors chars-per-pixel */
"64 64 11 1 ",
"  c None",
". c black",
"X c #292631",
"o c #5B445E",
"O c #4A656C",
"+ c #8C6757",
"@ c #548579",
"# c #8A579F",
"$ c #7784BD",
"% c #C9A781",
"& c #8EBFD5",
/* pixels */
"                                    oooX                        ",
"                                  o##oo   oo##ooX               ",
"                                 o##o    ####ooXXo++ooooX       ",
"                                o##o    ####oXoo+ooooX          ",
"                               ooooo oXoOo##oXooooX             ",
"                              XOooOXoo Xoo###XooX               ",
"                              X$oOOo#o oXoo##XX        ooooX    ",
"                             XO$ooO##oooXXo##X        ++ooooX   ",
"                             X#$#o#o#ooXXo##oX .    o++oo       ",
"                            X####oo##oooO#o#o  oX XoooXX        ",
"                           X#$###oo#oo######XX##XXoooXX         ",
"                          .OO$#$###oo##ooXXoo$##Xoo             ",
"                          O$@$o$##ooo#oXo###$##oXo      X       ",
"                          @OO#+@##XoooXXXoooo#oXX     X+++o     ",
"                        ooOo$#O#o#ooo#Xo#oXXXoXXX .XXo++oo++    ",
"                       o#O@#@ooo#ooo##oo###XXoXXXXXoooooXXXoX   ",
"                       O#+o#o#o++#o$#oXoooo#XooXXXXXXX      X   ",
"                       o#+X+ooo%++oooooo###ooooXXXXX            ",
"                       o@+oo++o%X+o@oXoo####oXoXXXX             ",
"                       oXXoX+@XOOXXoXooXo#$$#ooooXX             ",
"                       oooX @XXXXXXOoooooXO$$##OoXX             ",
"                          O oXoooooXXooOooX#$##$oX              ",
"                          %ooX @OooXXOoOOoXo$##$oX              ",
"                          +oo  +XoX.oOOOOOXo###$oo              ",
"                          oOX  +oXX ooOOoooX#$##oo              ",
"                           #o   #o  oOooOOooo$##oX              ",
"                                oo  oOOOOOoXo$#ooX              ",
"                                   oOOOOOOoX###oXX              ",
"                                   oOOOO@@oX##oXoX              ",
"                                  XoO@@@@@oo#oooo               ",
"                                  XOO@@@Ooo##oo#o               ",
"                                 X@@@OOOOOo#oo#o                ",
"                                XO@@@@@OOo##o##o                ",
"                               oo@@@@@@Ooo#o##o                 ",
"                              oOO@$@@@Ooo####o                  ",
"                             OOOO@OOOooX####oX                  ",
"                            O@@@OOOOOOXo###oX                   ",
"                           @@@@@@OOOOXo##ooX                    ",
"                         XO@@$@@@OOOXo##ooX                     ",
"                         oO@&@@@@OOXo###oX                      ",
"                        OOO$$@@@@OXoo##oX                       ",
"                       o@@@&@@@@OXXo###oX                       ",
"                       O@@@&@OOOoXoo##oX                        ",
"                      O@@@OOOOOOoXoo#oXX                        ",
"                      O@@$@@@@@@oXoo#oX                         ",
"                     X@@$$@@@@@@XXoooXX                         ",
"                     X@@$@@@@@@OXXoooXX                         ",
"                     oO@$@@@@@@oXXooXXXX                        ",
"                Xoo XOO@@@@@@OOOoXXoXXoX                        ",
"               oooo X@OOOOOOOO@OoXXXXXoo                        ",
"              ooXoo o@@OOOOO@@@@OXXXooo#XX         XoooX        ",
"             oooXoo o@@OOO@@@@@@OoXX##oooX          ooooX       ",
"            o+XXXooXoO@@@@@@@@@@OoXoo##oXo          oXooXX      ",
"            +oX  XoXoO@@@@@@@@OOOXXX#oooooo o#o     XoXX+o      ",
"           XoX   XoXXO@@@@@@OOOooXXX###ooo#X##oo    XoXX++o     ",
"           Xo   XXXXXOO@@@OOOOooXooXo###oo#X##+%+   oXXX+++     ",
"           Xo    XoXXoOOOOOOoooXo#oXo###ooXooXo+%+  ooXXXo+o    ",
"           o  XoXoooXoOOOOOoXX+%+oo#oo##ooX##XXo++ XooXX Xoo    ",
"              XoooooXXooooXXXo%%+o####o##oo##ooXo+XXooXX XXo    ",
"               XooXXXXXoooooX+%+oXo#oo####oo#oooX+XoXXX   Xo    ",
"                o++ XXXooooo+%+oXXXXo#o##oXooXXoX+XXX     oo    ",
"                 ooooXXooooo%++XXXXXXoo#ooXXXXXoooXX      oX    ",
"                  XoooXoooo+++oooXXXXXXoooXXXXXXX+XX      X     ",
"                  XX X XXXooXoooXXXXXXXXXXXXXXXXXoXX.           "
};
