/* XPM */
static char *_f5d3228145a4d7dc2ebafd30f881e0c6PsAliX7jvRz0dWo[] = {
/* columns rows colors chars-per-pixel */
"64 64 123 2 ",
"   c None",
".  c #4D2304",
"X  c #4F260B",
"o  c #4F2A13",
"O  c #502C17",
"+  c #522F18",
"@  c #4F311E",
"#  c #53321E",
"$  c #4F3524",
"%  c #543522",
"&  c #543826",
"*  c #5A3A26",
"=  c #553A2C",
"-  c #5A3D2C",
";  c #563D30",
":  c #574233",
">  c #5A4233",
",  c #574739",
"<  c #5A473A",
"1  c #57483B",
"2  c #59493C",
"3  c #624937",
"4  c #634C3B",
"5  c #5D4D42",
"6  c #5C5246",
"7  c #5D5348",
"8  c #645444",
"9  c #61554B",
"0  c #61594E",
"q  c #655E57",
"w  c #675F56",
"e  c #665E57",
"r  c #665E55",
"t  c #645C53",
"y  c #685D55",
"u  c #685D56",
"i  c #665E58",
"p  c #665F58",
"a  c #665F59",
"s  c #666057",
"d  c #686155",
"f  c #696255",
"g  c #666058",
"h  c #666059",
"j  c #676159",
"k  c #676259",
"l  c #67605A",
"z  c #67625A",
"x  c #6A615A",
"c  c #68625A",
"v  c #68635A",
"b  c #68625B",
"n  c #68635B",
"m  c #69635B",
"M  c #69645B",
"N  c #69635C",
"B  c #6A635C",
"V  c #69645C",
"C  c #69645D",
"Z  c #69655D",
"A  c #6A645C",
"S  c #6A655C",
"D  c #6B645D",
"F  c #6A655D",
"G  c #6B655D",
"H  c #6A665C",
"J  c #6A665D",
"K  c #6B665D",
"L  c #6B675D",
"P  c #6A655E",
"I  c #6B655E",
"U  c #6A665E",
"Y  c #6B665E",
"T  c #6B665F",
"R  c #6B675F",
"E  c #6C665E",
"W  c #6C675E",
"Q  c #6C675F",
"!  c #6B685F",
"~  c #6F695D",
"^  c #6C685E",
"/  c #6D685F",
"(  c #6D695F",
")  c #6D685F",
"_  c #706B5F",
"`  c #716B5F",
"'  c #6C6760",
"]  c #6C6861",
"[  c #6D6962",
"{  c #6D6963",
"}  c #6E6963",
"|  c #6E6A62",
" . c #6F6A62",
".. c #6F6B62",
"X. c #706B62",
"o. c #706B63",
"O. c #726D61",
"+. c #706C62",
"@. c #706C63",
"#. c #706D63",
"$. c #746E61",
"%. c #716D64",
"&. c #747166",
"*. c #747167",
"=. c #767468",
"-. c #767469",
";. c #77766C",
":. c #767469",
">. c #78776C",
",. c #858477",
"<. c #858478",
"1. c #868578",
"2. c #868579",
"3. c #87867A",
"4. c #85837A",
"5. c #88877B",
"6. c #929089",
"7. c #939189",
"8. c #93918A",
"9. c #95938C",
"0. c #98968E",
"q. c #99988F",
"w. c #9A988F",
/* pixels */
"  * * * * * * * * * * * * * * *       * * * * * * * * * * * * * * * * * * * * * * * * * * * * * *   * * * * * * * * * * * * * * ",
"  <.<.<.<.<.5.,.<.<.<.,.<.<.,.5.*   > ` ` ` ` ,.,.,.,.1.<.,.<.<.,.5.<.,.5.,.,.,.<.<.<.<.,.5.,.5.5.> ,.5.<.<.<.<.,.5.,.,.<.<.<.<.",
"  5.<.<.<.<.<.<.5.5.,.,.<.,.5.<.5.4 +.$.` ,.,.1.,.5.5.,.5.,.<.,.<.,.<.<.5.<.5.<.5.<.<.<.<.<.5.<.5.3 <.5.5.<.<.<.<.<.5.5.,.5.5.<.",
"  <.<.5.5.<.<.<.,.,.<.5.5.5.<.,.,.3 f f 1.1.1.1.,.1.1.1.,.,.5.,.,.5.5.,.,.,.5.,.<.<.<.,.5.,.,.,.1.8 ,.,.<.<.<.<.5.,.,.,.,.1.1.1.",
"  7.7.7.6.6.7.6.7.7.7.7.7.9.w.w.w.8 7.0.w.0.9.9.9.9.9.9.9.9.9.9.9.7.7.7.7.7.7.6.7.7.7.7.7.9.w.w.w.8 9.w.w.w.9.9.9.9.9.9.9.9.9.9.",
"  +.+.+.X. .X.X. .......+.+.+...+.> +.+.+.X.X.X.+.+. . ......... .+.+.+.+.+.X.X..... ...+.#.#.+.&.> X.X.+.+.X. .+.+.+./ +.+. .+.",
"  / / / / / / / / / / / / / / / / > / / / / / _ / / / / / / / / L / / / / / I / / / / /  ./ / / / > ` _ / / ^ / / / / / / I / I ",
"  / / / / / / / / ^ ^ ^ ^ ^ ^ / L > / L / / I I / / I / L I M / I / / / / / / / / ^ ^ ^ ^ ^ / I L > L L ^ L L / / / I L / L / / ",
"  / I I / / ' L ^ ^ I / I / L I / > / / L / L L L L L L L L B L L / / / L L  .L I / / ^ L ' I I / > / I I L L L L L L L L I I I ",
"  I / L / I I L L ^ I L / L L L I > I I L L L L L B L L L L L L L I L / L L L L / I ^ ^ L L L L L > I I L L L L L L L L B L I I ",
"  / L L L L L L L L L L L I L L L ; L L L L L L B L B L B L L L M L L L L B B L L L L L L L L L L > I I L L L B L L x L L M L M ",
"  M L M L M k L L M B L M B L L L - B L B B B B B B L B B B B L L L M M L B L L B L x L B L B B L - B L B B L L B B L B M L M L ",
"  L M L L B L L M L M L L M M I L % x k B k B B B B L k k L k k x L L L L B L L L x L L B L L L L # M M M M M k M M M M M M M M ",
"  M M M k L k B M M M M x M M M x # k L B L k k L k k B L k B L M M k L L k k B L k k L N k k B f # x M M M x C M M M M M M M M ",
"  x x M k B B L x k M M x M M x k % L k k k k L k B k L k L k B x M M x k B k B k B B B k B k k M # M M k C k M M k M k M k x M ",
"  k k k k k k k k k x k k M k M k # k k B k k B k k k k k B k k k k k k k k k k k k k k k B k L L O k x x k M k k x k M k k x M ",
"  k k k k k k a q h h q z h g g g $ k a k k k k k k k k k a k a g g g z z q z h g z g g z h z ] = X N a h h z q z z z z a g z g ",
"  L B B B N C B ' z z ' Z z C C M X L L B B N N C C N N C N N N C C C z z ' z z C C C z z Z ] $ : , = B z ' z ' C z z ' N C C C ",
"  = = = = = = = $ ; = = ; ; = = = 1 = = = = = = ; = = = = = = = = = = = ; ; $ ; = = = = ; ; = : 2 2 : = $ = = = ; = = $ = = = = ",
"  1 2 1 1 1 1 1 5 1 1 1 1 1 1 1 1 6 1 1 1 1 1 1 O 1 2 2 1 1 2 2 2 2 1 1 1 1 5 1 2 2 1 1 1 1 5 6 6 5 6 1 5 1 1 1 O 1 1 5 1 1 1 2 ",
"  7 7 7 7 6 6 7 7 7 7 7 6 6 6 6 7 7 7 7 7 6 7 7 @ 6 7 7 7 7 7 7 7 7 7 7 7 7 7 7 6 6 6 6 6 6 7 6 6 6 6 7 7 7 6 7 @ 6 7 7 6 7 7 7 ",
"  6 6 7 7 6 6 6 7 7 7 7 6 6 6 6 6 7 6 6 7 6 6 6 $ 6 6 6 7 7 6 6 6 6 6 6 6 7 7 7 6 6 6 6 6 6 6 6 6 6 7 6 7 6 6 6 $ 6 6 7 7 7 7 7 ",
"  7 6 6 6 6 6 7 7 6 6 6 6 6 6 6 6 7 6 7 7 6 7 6 $ 6 7 7 7 7 6 6 7 6 6 7 6 6 6 6 6 7 7 6 6 6 6 6 6 7 7 7 6 6 6 6 $ 6 7 6 6 6 7 6 ",
"  6 7 6 7 7 6 6 6 6 7 7 6 7 6 6 6 6 6 7 6 6 7 6 $ 6 5 7 7 7 6 6 7 7 6 6 7 6 7 7 6 6 7 6 6 6 6 6 6 6 7 6 6 7 7 6 $ 6 7 5 9 6 7 6 ",
"  6 6 5 6 6 6 6 6 6 6 6 6 6 5 6 6 6 6 6 6 6 6 6 $ 6 6 6 6 6 5 6 7 7 6 6 6 6 6 6 6 5 6 6 6 6 6 6 6 6 6 7 6 7 6 5 $ 6 5 6 6 6 6 6 ",
"  q t t t t 0 q 0 t t 0 t q t t t t 0 0 t t 0 t = t t 0 t t t t t t t t 0 t 0 0 t t t t t 0 t q 0 t t t 0 t t t ; t t q 0 q t 0 ",
"  N C z k x x B C ' z C N k B k a ' ' h B B B B = C z z L N k x z ' z ' z z ' h N N N L z C C C z z C z C C B B = B N B C C C k ",
"  0 0 7 0 0 9 0 7 7 0 7 0 0 0 0 0 0 0 0 5 5 5 2 @ 2 5 0 7 t 0 0 0 7 0 7 0 0 7 0 9 0 7 7 7 0 7 0 7 0 0 7 5 5 2 2 + 2 5 7 7 0 0 7 ",
"  a e e y d t 1 e e e e e r e e q q q e 0 0 0 9 0 9 0 y e y a e y y e e a q t 1 x B B B B B B L ' C L L y y y y y y e B ' L B L ",
"  L B L L L L 5 L L L B L M B L z ' C ' L L ' L L L L L B L B L L I M L N ' I 5  .] ] ] {  .] ] { { { {  . .{ { ' '  . .{  .' { ",
"  k k k a x d 5 a k k k k k k d z g z g a k k k k k a a k k k k k k a k k k x 5 e k k a k a q k a a a a e k a a a a a a a a a k ",
"  k a x k a k 5 k a a k k a a x g z g z k a a x a k k k k a a x k k k k k k k 5 k a k a k k a k k k k k a k k k k k k k k k a k ",
"  x k a k k k 5 x a a k k k k a k k k a k a a k a k k k k a a k a k k a x a k 5 k a k k k a k k a k a k k k a a x k a x k k k a ",
"  a k k k k k 5 k k k k a a k k a a k k k k k k k k a a k k k k a k k a k k k 5 k a k a k k a k x k a k a k k k a k k k k a k k ",
"  k k k a x x 2 k a k a x k a x x k a k a k k k k a k k a x k k x k k k k k k < a k k a a k k a k a k k a k k a k k k a a k a x ",
"  x k k x k x ; N B k k k k k k x k N k N x x u N x N N x k x u k x k k k C x ; N N k N k k N k k N k k N k x k k x k k k N k k ",
"  0 0 9 7 9 5 & 5 7 t t t t t t 0 9 9 9 9 9 9 9 7 7 9 7 9 0 9 9 9 0 0 7 7 9 5 = 5 7 t 0 t 0 0 t t 0 t 0 t 7 9 9 0 0 9 9 t 0 t 0 ",
"  9 5 9 5 5 2 5 5 5 0 0 0 t 0 0 7 9 5 5 5 = > > > > 5 5 9 9 9 9 9 9 9 9 5 5 5 5 5 5 y t t t t t t y t t y 9 9 0 5 9 9 9 t t t y ",
"  L B B C C B L B B B B k B N k L I ' ' L 0 5 5 5 0 I ' L ' L L I I L ' ' ^ I / L ' L B B ' L L B L ' N B L ' B 5 B ' B ' B B ' ",
"  a a a e a a a a a a a a a a k a e e e e I 9 5 5 x e e q q a e k y q q e e e e q q a a y a q q a y q q a a q q 2 i q q q q q q ",
"  a k e a e k e a e a e a e a e a e a e k q L 7 2 u a a e a e k a a e k a e a e a e k e e a e a a e k e a e a a 5 i a a a a a e ",
"  a e a e a e a e k e k e a e a e a e a e a e  ., t a a k e a e a e a e e k e k e a e a a e k e e a e a e a a a 5 t a a a a e a ",
"  e k e a e a e a e a e k e a q k e a e e a a L < e a a e a e a e a e a a e a a a e a e e k e e k e a e a e a a 6 u a u k e a e ",
"  a e a e a e k e a e a e a e k e a e k a e a q < a a i a e k e a e k e a a a a e a e k a e a e e a e k e a a a 2 u a a e a e a ",
"  e a y k a a a u k a a e e e e a u a e e k k a > N a i e e e a e k a a a a u u k a e a e a e e a e e e u a a a # a a a a e e e ",
"  t e e 7 q t t 0 t t t t t t t y 0 t 0 t 7 9 0 + 0 0 t t t t t t t y y 0 t t t t t t r t t t t t t t t t 0 9 9 % 9 0 t t t t t ",
"  0 0 0 5 9 5 2 7 7 9 9 7 9 9 9 7 9 9 9 9 ; ; < < ; ; 9 7 9 7 7 7 0 0 9 5 7 5 2 5 7 0 9 7 9 7 9 9 9 7 9 9 ; > > < ; > 7 9 9 7 7 ",
"  I I / I ' ' 2  ./ I / I I I I I L ' ' ' { ' '  .'  .' I I L ] L ' I ' ' ' ' 2 ' L I I / L I  .L I I L ' { { ' ' ' ' I I ' I I ",
"  e e e e e q 1 e e q q q q q q e e e q q q q q q q q q q q q q q q q q e e u 2 q q q q q q q q e e e e q q q q q q q q q q q q ",
"  a a a a a e 5 a k k e q a a e e a k e e a q k a e e a e a a e e a e a a k x 2 k e a e k e a e e e e e a e e k a q k e q a a e ",
"  a e k d a e 9 e k e a e a e k a e a e a q a e k e k q a e a e k q k e a e a 7 q a q a q a e a k e d a q a e a e k q a e a e k ",
"  e a e e e e 7 a e a e k e a q e k e a e k e a q a e a e a e a e a e a e a e 7 a e k e a e k e q a q a k e a e a e a e k e a q ",
"  a a e a e a ; a e a a q a e k a e a e e a e a a e e a e a a e a q a e a e a ; e a e a d a a a a e a e a e e a a e a a q a e k ",
"  e e a e a a = e a e y a e a q e a e a a e a y e a a e k e a y e k e a e a e - k q k e e e a e e a e q e a a q e a e y a e a q ",
"  t t t r t t - t t t t t t t t t e t t t t t t t t t t t t t t t t t t t t y = t t t t r t 0 r t q t t t t t t t t t t t t t t ",
"  * * * * * & * * * * * * & * * * t * * * * * * * * * & * * * * & * * * * & * * * * * & * * * * * q * * * * * * * * * * * * & * ",
"  ;.;.;.;.;.;.;.-.;.;.;.;.:.;.;.>.* >.>.;.;.;.;.;.;.;.;.;.;.;.;.-.>.-.;.;.;.;.;.;.;.;.;.;.;.>.>.-.. ;.;.;.;.;.;.:.;.:.;.;.;.;.;.",
"  =.*.;.=.=.=.=.:.:.:.:.:.:.:.:.=.8 =.=.;.=.=.=.-.-.-.-.;.=.=.=.:.:.:.:.:.:.:.:.-.-.-.-.-.-.=.=., o *.;.=.=.=.=.:.:.:.:.:.:.*.:.",
"  ;.=.=.;.=.=.=.:.:.:.:.-.-.*.:.=.8 -.-.=.=.=.=.-.-.-.-.=.=.=.=.:.-.-.:.:.:.:.:.-.-.-.-.=.=.=.< < O =.=.;.=.=.=.:.:.:.:.:.:.:.:.",
"  -.=.;.=.;.=.=.:.:.:.:.-.-.;.-.=.9 -.-.;.=.;.;.;.-.-.;.-.;.-.=.-.-.;.;.:.:.:.:.-.;.;.;.7 t , 2 < o =.;.=.;.=.=.:.:.:.:.-.-.;.-.",
"  4.4.4.,.4.4.4.4.4.4.4.4.<.4.4.<.8 <.4.4.4.4.<.4.4.4.4.,.4.4.,.4.,.4.4.4.4.4.4.,.<.<.7 t 0 7 0 < o ,.4.,.4.4.4.4.4.4.4.4.4.4.4.",
"  a d e q s q s q s q q a e s e t 8 s s q s q q q s s q s q q q q s q q e e q e s s s %.7 0 0 , 2 O d e q s q s q s q q e q s q ",
"  s s s s s s s s s s s s s d g s 8 s s s s s s s s s s s s s s s s s s s s d s s s s s ..0 , , o o e d s s s s s s s s s s d s ",
"  s s s s s s s s s s s s s s s s o s s s s s s s s s s s s s s s s s s s s s s s s s s &.1 o o     o d s s s s s s s s s s s s "
};
