/* XPM */
static char *be9cf5be9dbf420cf24507be21ce6055p5SjT79ONWXdB6X1[] = {
/* columns rows colors chars-per-pixel */
"64 64 172 2 ",
"   c None",
".  c #460000",
"X  c #480000",
"o  c #4C1600",
"O  c #4D1900",
"+  c #511C00",
"@  c #4D240A",
"#  c #512C0F",
"$  c #4E2712",
"%  c #562D13",
"&  c #532F1A",
"*  c #5B3415",
"=  c #53311D",
"-  c #563624",
";  c #5A3723",
":  c #563926",
">  c #5B3924",
",  c #563B2B",
"<  c #5A3E2C",
"1  c #573E31",
"2  c #583F31",
"3  c #59412E",
"4  c #564036",
"5  c #5B4435",
"6  c #564239",
"7  c #5B453A",
"8  c #5C4A3D",
"9  c #60422D",
"0  c #634634",
"q  c #654936",
"w  c #604639",
"e  c #634A3C",
"r  c #6A4E3A",
"t  c #6C503B",
"y  c #5E4D42",
"u  c #5E5145",
"i  c #5E544A",
"p  c #5F584E",
"a  c #634F43",
"s  c #684F40",
"d  c #625245",
"f  c #6B5445",
"g  c #635847",
"h  c #62554B",
"j  c #69564B",
"k  c #63594D",
"l  c #6B5B4C",
"z  c #725B4B",
"x  c #785F4E",
"c  c #645C53",
"v  c #6A5E54",
"b  c #675F58",
"n  c #715F52",
"m  c #72624D",
"M  c #656057",
"N  c #6B6155",
"B  c #676159",
"V  c #6A655C",
"C  c #6E685E",
"Z  c #736453",
"A  c #756853",
"S  c #72665A",
"D  c #7C6759",
"F  c #73695D",
"G  c #7C6A5D",
"H  c #6B6760",
"J  c #6D6A62",
"K  c #6F6E68",
"L  c #716C63",
"P  c #7D6E62",
"I  c #726F69",
"U  c #767267",
"Y  c #787267",
"T  c #75736B",
"R  c #7A766B",
"E  c #7C796D",
"W  c #7B7770",
"Q  c #7E7B71",
"!  c #846F60",
"~  c #807C6F",
"^  c #827E73",
"/  c #858276",
"(  c #878477",
")  c #878477",
"_  c #848275",
"`  c #8A8073",
"'  c #888073",
"]  c #858079",
"[  c #858278",
"{  c #858379",
"}  c #868378",
"|  c #85837A",
" . c #86837B",
".. c #878478",
"X. c #878578",
"o. c #878479",
"O. c #878579",
"+. c #868578",
"@. c #86857A",
"#. c #87867B",
"$. c #868579",
"%. c #888479",
"&. c #888579",
"*. c #898579",
"=. c #898779",
"-. c #88867A",
";. c #88877A",
":. c #89877B",
">. c #8A877B",
",. c #8B877B",
"<. c #89877D",
"1. c #89877C",
"2. c #88877E",
"3. c #89867A",
"4. c #8A887B",
"5. c #89887C",
"6. c #8A897D",
"7. c #8B897D",
"8. c #8B887C",
"9. c #8B8A7D",
"0. c #8B897E",
"q. c #8B887E",
"w. c #8B8A7E",
"e. c #8B8A7F",
"r. c #8B8B7F",
"t. c #8C8A7E",
"y. c #8D8A7E",
"u. c #8C8B7F",
"i. c #8B897E",
"p. c #8D8B81",
"a. c #8C8C80",
"s. c #8D8C81",
"d. c #8E8C81",
"f. c #8D8C82",
"g. c #8E8D82",
"h. c #8F8D83",
"j. c #8D8B81",
"k. c #908D83",
"l. c #908E83",
"z. c #909085",
"x. c #919187",
"c. c #959287",
"v. c #939288",
"b. c #939289",
"n. c #939389",
"m. c #93938A",
"M. c #949288",
"N. c #959388",
"B. c #949289",
"V. c #949389",
"C. c #959389",
"Z. c #94938A",
"A. c #94938B",
"S. c #95948A",
"D. c #94958A",
"F. c #96948B",
"G. c #96958B",
"H. c #95948C",
"J. c #94958C",
"K. c #97958C",
"L. c #96958D",
"P. c #97968C",
"I. c #97968D",
"U. c #97968E",
"Y. c #929188",
"T. c #98978F",
"R. c #9A978D",
"E. c #97998F",
"W. c #989790",
"Q. c #999890",
"!. c #9A9990",
"~. c #9A9A91",
/* pixels */
"                                      ! M.<.8.5./ ' / / ' / / / / / _ _ _ _ _ r.E f                                             ",
"                                    m !.{ 8.5.) ) 5.) +.) ) ) ) >.) ) ;.) ) { ) 8.n.` e                                         ",
"                                    z F.{ { ' 5.E U R R E E E E R R R R Y E 5.{ { _ E.!                                         ",
"                                    z n.' ) ;.E d 3 5 5 5 5 0 5 5 0 5 0 5 d R ) ) Q c.D                                         ",
"                                    z c.) ) y.F m ^ E ^ ^ ^ ^ ^ ^ ^ ^ ^ / S j 5._ ~ c.D                                         ",
"                                    z F.' ) y.A Z / ^ ^ / >.[ [ / [ / ^ 8.P l 5./ ^ b.D                                         ",
"                                    z n.) ) r.F v / ^ / ^ ^ / [ / [ / E { F l ) / ) M.D                                         ",
"                                    z F.) { r.D n >.[ [ ^ ^ ^ ^ ^ / / E / F z 8.{ / H.D                                         ",
"                                    z F.>.8.r.F N | / [ E Y Q ^ ^ [ ^ ^ ^ S x p.{ / T.G                                         ",
"                                    z F.| 8.r.G Z / ^ / E R Q Q Q ^ E E R N Z j.{ / H.!                                         ",
"                                    z T.8.8.x.F v <.>.>.>.8.{ / / E ^ E W N z h./ / !.G                                         ",
"                                    z T.8.8.r.{ S f f l l l f j f d r d r l [ ,.8.[ !.G                                         ",
"                                    z !.{ 8.y.k.,.^ ` / ^ ^ ` ` / ` ^ ` ^ >.k.,.y.[ !.!                                         ",
"                                    f F.l.g.>.<.,.y.y.y.y.y.y.y.j.8.<.p.y.<.%.<.{ y.T.n                                         ",
"                                    q R <.j.T.M.T.W.F.M.L.L.F.H.b.L.M.M.M.T.L.U.H.g.J >                                         ",
"                                    r I L ^  . .[ ^ [ ^ ^ ^ ^ ^ ^ ^ ^ ^ ^ ^ ^ ^ / R N 3                                         ",
"                                    0 Y ^ L C C B N N N N C N S C C V N N M N N v S T a                                         ",
"                                    0 T Q C L J L L L L L L L L F L F F F C C C S v W s                                         ",
"                                    e Q N J S J C F L J L L L L F J L L J L F C H B W s                                         ",
"                                    e ^ C S J S C F C F S L F J L L L L L L J C C C W s                                         ",
"                                    e Q V J S L C F L L L L L J L U J L L L L F L V Q s                                         ",
"                                    < Y V S V C C C C J F C C C C C F C C C C C C V R w                                         ",
"                                      & d u y y y u u h h i g d g u u u u u y 8 y a &                                           ",
"                                        & a d d g p h h k k k k k h h u u u u i r -                                             ",
"                                          = < : , < 2 5 5 5 5 5 3 < , , : - - , =                                               ",
"                                            e N c c N < k B B N N M b B M b H f                                                 ",
"                                            a H B V H 8 N C V V H V H H H H J j                                                 ",
"                                            e H B b V 8 k V B V V V V V V V K j                                                 ",
"                                            a H B B H 8 c V V V V V V V V V H j                                                 ",
"                                            e H b B V 7 c V B V V V V V V V J h                                                 ",
"                                            f J V V J y h C C V V V H H H H K c X                                               ",
"                                            2 j d d y 1 # 8 p k k c c h i h h 7                                                 ",
"                                            4 h h i d h j h c c c 2 7 V b b V a                                                 ",
"                                            t C b b V b b b b b c 5 L K L K T n .                                               ",
"                                            7 N c p p c p p p p i 7 K V H H K h                                                 ",
"                                            8 M p c c p c p p c i 7 J H H H K j                                                 ",
"                                            w M c c p c p p p p i 7 H H H H K j                                                 ",
"                                            0 c p c c p c i c p c 1 K H J J K j                                                 ",
"                                            : u 8 i i i i i i i y = b b b b H y                                                 ",
"                                            6 a y y < 7 y y y y y y y a i d j y                                                 ",
"                                  * G A G f 8 T J I y b K H J L J K J K K K T k & e 0 0 r =                                     ",
"                                q ) Q Q { V < V b V 8 h B b M b b c b b B B K y 5 v l l l 3                                     ",
"                                t g.E E ~ V 1 H B H 8 c V B B B B B b b b b H y 3 k i g g =                                     ",
"                                t 8.E E _ S 1 H B V 8 k B B B B B B B b b b b y 3 m g g v >                                     ",
"                                r 8.^ E _ S 3 C B V 8 k V M b V B B b b b b b y 5 N m g N >                                     ",
"                                t 8._ ~ / V < J V H 8 c H B B V b H H H V b H y 3 N k k N =                                     ",
"                                r 8.^ ^ ^ ^ N 5 a e 8 7 y y y y y y 1 2 1 1 1 y k k N g +.8                                     ",
"                                t g._ _ / F y R I I L I K K K H J h y 2 K J I i 8 A N k 9.8                                     ",
"                                t y._ / { F 5 T S J C C H V V H B K V 6 B M H 6 5 S k L p.w                                     ",
"                                t g._ ' 5.F 8 T H J H V V H H M M M p i B M H 8 8 N F U p.w                                     ",
"                                t g./ / =.F e T V H C V V V V b M M M i B B V 8 8 N U E p.7                                     ",
"                                t g.' / 5.F 8 U V H V V V B b b M B p 6 H M H 8 5 U E R y.7                                     ",
"                                t l./ / 5.S 7 W J L L J C V V V B J B 3 J V J 8 3 U ~ E 8.w                                     ",
"                                t g./ ) ) ~ j 8 8 7 7 8 7 2 6 4 4 8 4 $ 6 6 6 6 k E ~ E j.w                                     ",
"                                t g.' / / ) ' A Z A m m Z A m m m l m N m m m L ~ E ~ E 8.7                                     ",
"                                t g.) ) ) ) ) ) ` >.) ) / / / _ ) _ ~ _ ~ ~ ~ ~ Q E ~ E g.w                                     ",
"                                r k.^ ' _ ^ ^ ^ ^ ^ ~ ^ ^ Q Q Q E E E E R R E R R R E T a.7                                     ",
"                                t R.c.c.z.k.k.g.g.g.g.j.j.k.k.j.r.r.a.g.r.8.6.r.p.p.8.8.b.w                                     ",
"                                9  .^ ^ E ^ E E E ^ Q Q Q ^ ^ ^ _ E Q W W W T W T R R T g.w                                     ",
"                                ; E B B V V C V C C C F J C S J C C C V V B B B M b b c [ 7                                     ",
"                                > ! S S S S S S S S S F F F F F S S S V V N N N b v N v Y 0                                     ",
"                                % o + + + + + + o + + o O o o o o o o o o o o o o O o O . @                                     ",
"                                                                                                                                ",
"                                                                                                                                "
};
