/* XPM */
static char *_02366f685c24281c870c1e3f22f1c61bQoTtLZDsNVvJLAV[] = {
/* columns rows colors chars-per-pixel */
"50 50 158 2 ",
"   c None",
".  c #D88405",
"X  c #D78F02",
"o  c #D98C03",
"O  c #DB8C09",
"+  c #D69302",
"@  c #D89504",
"#  c #D79804",
"$  c #D99B05",
"%  c #D4950A",
"&  c #D9920D",
"*  c #D69E0D",
"=  c #DA9C0B",
"-  c #D68D15",
";  c #DC861F",
":  c #D49711",
">  c #DA9312",
",  c #D79C15",
"<  c #DA991C",
"1  c #E59014",
"2  c #DCA40B",
"3  c #DDA80D",
"4  c #D4A016",
"5  c #D9A213",
"6  c #DEAC13",
"7  c #D4A21E",
"8  c #DBA51C",
"9  c #DCAC1B",
"0  c #DEB114",
"q  c #DEB21B",
"w  c #E5A71F",
"e  c #E8A51F",
"r  c #E3AF1D",
"t  c #E1B416",
"y  c #E2B51B",
"u  c #E3BD1C",
"i  c #E8BA1E",
"p  c #DC9925",
"a  c #DA9D2C",
"s  c #DBA422",
"d  c #DAA32B",
"f  c #D5AB2E",
"g  c #DAAD2E",
"h  c #DFB222",
"j  c #DDB62A",
"k  c #DFBF28",
"l  c #DBA537",
"z  c #DEA03C",
"x  c #DCAC3A",
"c  c #DEB534",
"v  c #E1A024",
"b  c #ECAE22",
"n  c #E5A428",
"m  c #E9AD29",
"M  c #E4B525",
"N  c #E5BD22",
"B  c #E3B22C",
"V  c #EAB02E",
"C  c #E6BD2B",
"Z  c #E9BC2F",
"A  c #E4B534",
"S  c #E3BA34",
"D  c #E9BB32",
"F  c #EBB33B",
"G  c #E3BC3A",
"H  c #ECBE3B",
"J  c #E3C01E",
"K  c #E4C123",
"L  c #E4C32C",
"P  c #E4C434",
"I  c #E8C032",
"U  c #E6C73D",
"Y  c #F0C13D",
"T  c #E0B346",
"R  c #E8B446",
"E  c #EBBD44",
"W  c #E7B648",
"Q  c #EBB74F",
"!  c #EBB94F",
"~  c #E1B957",
"^  c #EEBD57",
"/  c #E0B65E",
"(  c #ECBF6B",
")  c #E3C742",
"_  c #EEC543",
"`  c #E6C943",
"'  c #EDC548",
"]  c #E5CA4A",
"[  c #E9CC4F",
"{  c #F4C044",
"}  c #F0C74D",
"|  c #EFC754",
" . c #E4CB54",
".. c #ECCC54",
"X. c #EEC25D",
"o. c #E4CF58",
"O. c #F1C050",
"+. c #F2C559",
"@. c #F2CC5B",
"#. c #E7CF65",
"$. c #F2C860",
"%. c #F1C368",
"&. c #ECD464",
"*. c #EED66A",
"=. c #F7D06E",
"-. c #F2C376",
";. c #F3CE78",
":. c #F4D371",
">. c #F3D47E",
",. c #F9D67E",
"<. c #F3CF84",
"1. c #F8CC85",
"2. c #EBDD8F",
"3. c #F6D482",
"4. c #F7DB80",
"5. c #F8DF85",
"6. c #F4D988",
"7. c #F9D88E",
"8. c #F6DA96",
"9. c #F8DC90",
"0. c #F5D999",
"q. c #FAE08E",
"w. c #FCE091",
"e. c #FCE89F",
"r. c #F5D8A0",
"t. c #F8DAA5",
"y. c #F9DDAA",
"u. c #F9E1A4",
"i. c #FDEAA5",
"p. c #FCEBA2",
"a. c #FDEEA9",
"s. c #FDEEAB",
"d. c #F9E8B1",
"f. c #FDEEB1",
"g. c #FCEEB3",
"h. c #FDEFB9",
"j. c #FDEEBD",
"k. c #FDF1B6",
"l. c #FDF0BA",
"z. c #FCF0BB",
"x. c #FEF2BB",
"c. c #FDF0BC",
"v. c #FDF0BD",
"b. c #FDF1BD",
"n. c #FEF1BE",
"m. c #FDF3BE",
"M. c #FDF3BF",
"N. c #FEF2BE",
"B. c #FEF3BF",
"V. c #FEF2C0",
"C. c #FEF3C1",
"Z. c #FDF3C2",
"A. c #FEF3C2",
"S. c #FEF4C2",
"D. c #FFF4C2",
"F. c #FEF5C3",
"G. c #FEF5C4",
"H. c #FEF4C5",
/* pixels */
"                                                                                                    ",
"                                                                                                    ",
"                                                                                                    ",
"                                                                                                    ",
"                                                                                                    ",
"                                                                                                    ",
"                                            ` L K J K L [                                           ",
"                                        n N K u u J J J K C D                                       ",
"                                    c v 1 r J K J J K J J i b H o.                                  ",
"                                  g q t b M u u J J u u N m v N P &.                                ",
"                                ~ s u N ^ ;.W N J J J N ! 3.X.K K ] 2.                              ",
"                                s 6 u H ,.s.0.E N J N E 7.x.u.' u K ]                               ",
"                              ( s t J ..p.c.j.>.K J K =.k.C.x.X.y J `                               ",
"                              d 5 t i @.a.V.H.8.S u I q.x.C.x.( N u P  .                            ",
"                              % $ t r ^ a.V.H.0.R N Y w.C.C.j.1.S u N P                             ",
"                              % $ t M +.a.V.H.y.^ N { w.B.C.c.-.C J K k                             ",
"                              % $ t u @.p.x.C.t.! u Y 5.V.C.c.$.i J K L                             ",
"                              : @ 2 i } q.k.F.0.F u D 4.c.C.d.| u J K )                             ",
"                              x = $ t Z =.a.c.6.D J K $.i.c.<.S J J P                               ",
"                                : + 2 u { ,.7.| K J u D %.3.' u u y j                               ",
"                                l & + 2 y F H N J J J u B V y y 2 p /                               ",
"                                  ; . + O 1 t t u u y y t 3 O O > z                                 ",
"                                    - O o + # $ $ $ $ $ $ + o & a                                   ",
"                                      < + + + + + + + + @ @ % d                                     ",
"                                          % @ + + + + + % :                                         ",
"                                            % @ $ $ @ @                                             ",
"                                              3 t t t t                                             ",
"                                              t J J J N                                             ",
"                                            h u J J J K                                             ",
"                                            q u J J J K P                                           ",
"                                          q u J i J J J L ..                                        ",
"                                        g y J J J J J J K P                                         ",
"                                        G y J J J J J J J K )                                       ",
"                                        S J J J J J J K J J &.                                      ",
"                                        q u J J J J J J J K *.                                      ",
"                                        9 u J J J K J J J J [                                       ",
"                                        $ t u J J J J J u 0 S                                       ",
"                                        % $ 3 t q u u 0 3 2 A                                       ",
"                                        , # # $ 2 2 $ $ $ 3 [                                       ",
"                                        A 0 0 3 $ # # 2 0 u *.                                      ",
"                                        B y J J M 8 0 u u K &.                                      ",
"                                        2 q J J G T M u J K U                                       ",
"                                        x q J q c   9 t J U                                         ",
"                                          8 0 q f   7 9 0 c                                         ",
"                                            5 7       7 4                                           ",
"                                                                                                    ",
"                                                                                                    ",
"                                                                                                    ",
"                                                                                                    ",
"                                                                                                    "
};
