/* XPM */
static char *_5a56f8833e24f2f93e0582424f49b22W8XGGYVYVp5E21Fu[] = {
/* columns rows colors chars-per-pixel */
"64 64 165 2 ",
"   c None",
".  c #00000C",
"X  c #000028",
"o  c #000C2B",
"O  c #00142E",
"+  c #001730",
"@  c #001D33",
"#  c #30152E",
"$  c #022336",
"%  c #002739",
"&  c #002A3C",
"*  c #142536",
"=  c #1A2637",
"-  c #1C2739",
";  c #1C293A",
":  c #152C3C",
">  c #232B3B",
",  c #2B2E3D",
"<  c #2E2535",
"1  c #26313F",
"2  c #2D313F",
"3  c #32313F",
"4  c #38333F",
"5  c #44192E",
"6  c #5C192B",
"7  c #60172A",
"8  c #462E3C",
"9  c #592E3A",
"0  c #6D2C37",
"q  c #68343E",
"w  c #2B3542",
"e  c #223744",
"r  c #353441",
"t  c #393643",
"y  c #3D3A45",
"u  c #3A3D48",
"i  c #363A46",
"p  c #403B47",
"a  c #463E49",
"s  c #4F3E48",
"d  c #553E47",
"f  c #613E46",
"g  c #42424C",
"h  c #4B434C",
"j  c #52454E",
"k  c #5A4049",
"l  c #4F4550",
"z  c #544750",
"x  c #544A52",
"c  c #5C4D54",
"v  c #555057",
"b  c #5C5157",
"n  c #53535B",
"m  c #62474F",
"M  c #79454B",
"N  c #734F55",
"B  c #65535A",
"V  c #6A565C",
"C  c #6D595E",
"Z  c #705257",
"A  c #71595E",
"S  c #605B61",
"D  c #6F5A60",
"F  c #735D62",
"G  c #7B5E63",
"H  c #766064",
"J  c #796166",
"K  c #7E6569",
"L  c #7E696D",
"P  c #85000A",
"I  c #8E000E",
"U  c #900000",
"Y  c #80021A",
"T  c #A60000",
"R  c #AB0000",
"E  c #B20000",
"W  c #A3181C",
"Q  c #9E3C3E",
"!  c #AC2C2C",
"~  c #B22F2E",
"^  c #AD3435",
"/  c #AB3A3A",
"(  c #A13E40",
")  c #89474C",
"_  c #964B4E",
"`  c #9F4A4C",
"'  c #9C4649",
"]  c #8A4C50",
"[  c #844D51",
"{  c #8C5154",
"}  c #845459",
"|  c #8E5B5E",
" . c #93595C",
".. c #9E5B5D",
"X. c #AD4545",
"o. c #A74A4A",
"O. c #B04040",
"+. c #AD5B5B",
"@. c #AD5353",
"#. c #B35C5C",
"$. c #B25353",
"%. c #81666A",
"&. c #846A6D",
"*. c #8A6B6E",
"=. c #856366",
"-. c #946366",
";. c #9D6A6C",
":. c #906B6D",
">. c #876D70",
",. c #8A6D71",
"<. c #8D7173",
"1. c #847376",
"2. c #947476",
"3. c #957678",
"4. c #96787A",
"5. c #9C7C7D",
"6. c #AC6566",
"7. c #AD6B6B",
"8. c #B16666",
"9. c #B26D6D",
"0. c #BA6B6B",
"q. c #A17D7E",
"w. c #AD7D7D",
"e. c #AF7373",
"r. c #B37272",
"t. c #B17877",
"y. c #B27C7C",
"u. c #9F7E80",
"i. c #A17F80",
"p. c #9D8081",
"a. c #A48283",
"s. c #AB8585",
"d. c #A58788",
"f. c #AE8788",
"g. c #AE8989",
"h. c #B18383",
"j. c #BA8282",
"k. c #B28C8C",
"l. c #BA8C8C",
"z. c #B6908F",
"x. c #AF9191",
"c. c #B59191",
"v. c #B99292",
"b. c #BF9897",
"n. c #B89798",
"m. c #BC9A9A",
"M. c #C29D9D",
"N. c #C5A4A4",
"B. c #CAA4A4",
"V. c #C7A8A8",
"C. c #CCACAC",
"Z. c #D2B3B3",
"A. c #D7B8B8",
"S. c #DBBBBB",
"D. c #DEC1C1",
"F. c #E3C6C6",
"G. c #E4C7C7",
"H. c #E7CBCB",
"J. c #E9CDCD",
"K. c #EED2D2",
"L. c #F1D6D6",
"P. c #F4DADA",
"I. c #F6DCDC",
"U. c #F8DDDD",
"Y. c #FAE0E0",
/* pixels */
"                                                                                                                                ",
"                                                                                                                                ",
"                                                                                                                                ",
"                                                                                                                                ",
"                                                                                                                                ",
"                                                                                                                                ",
"                                                                                                                                ",
"                                                                                                                                ",
"                                                                                                                                ",
"                                                      i. .I 7.h.y.o.o.r.c.                                                      ",
"                                              z.s.,.,.x % & M -.| / ' y.l.j.v.y.                                                ",
"                                            k.s.B o g s.&.< 3.d.8 0 l.x.5.f c L h.s.                                            ",
"                                          k.%.> > 2 %.v.k.n.k.k.u n c.2.w w = , i H z.                                          ",
"                                        <.J j , y r i.k.z.B.g.s.%.i.l.a., 4 r , r H >.g.                                        ",
"                                      y ; a a.h , r s.k.k.N.v.B.f.k.k.k.2.$ V &.y g.2.<.B.                                      ",
"                                    r r r > <.s.q.q.a.a.Z.P.J.L.H.F.k.f.k.q.g.K > 2.s.2 ,.b.                                    ",
"                                  %.r r r a s.z.l.v.N.F.L.J.U.U.I.P.Z.g.k.k.c.<.D 7.9 w &.5.                                    ",
"                                  5.> r r r 5.k.s.F.F.D.V.b.D.D.L.K.A.v.s.a.v.s.l , 2 c C x ,                                   ",
"                                2.g , r t @ A N.V.C.k.q.s.k.a.a.J.P.b.g.a.c J s.p.w > G F O y r                                 ",
"                                &.> y , c 5.q.b.M.s.k.k.k.k.k.v.L.P.D.c.g.B j k.z.%.$ t V h > A                                 ",
"                                C > y @ G v.k.s.4.a.k.h.s.k.s.C.H.J.A.g.v.g.*.5.g.v.V o C *.= c s.                              ",
"                              ,.h 3 2 c s.g.k.,.= c 5.t.k.k.k.k.k.k.s.k.4.<.a.r C 4.i.c t a = ; ,.                              ",
"                              B , y @ K v.g.k.z y %.V k.k.k.k.g.g.g.k.a.4 = J %.@ o ,.&.O $ >.A F                               ",
"                              %.- w F c a.g.F 2 G V 4.v.s.k.k.z.k.g.v.3.$ t @ K %.; t *.h _ *.b y                               ",
"                              >.+ > <.2.k.s.r u { =.s.5.k.g.5.q.a.k.a.&., y > c 5.g = J >.( q 5.J                               ",
"                              %.a ,.k.s.s.k.r F 4.&.B y a.G O O <.2.O , r r r r 3 2 2 d } % H G ,.                              ",
"                              J A M.k.V u.5.@ H G j h c K y <.,.k.C K h 3 r r 3 y V : k [ % H y @                               ",
"                              K a 4.B > s.K X H %.@ r 3 &.s.z.k.k.a.z.&.2 r r 1 m { $ x 1.u o > l                               ",
"                              a.z 3 y = a.%.. H J @ 2 x g.k.g.g.k.k.f.j o h = V k.:.@ Z -.N S g B                               ",
"                                F O 5.K s.4.x J *.j , a.k.g.k.k.k.k.k.J A 4.%.a.z.L o *.[ ) 6.;.>.                              ",
"                                i.4.k.k.g.l. .h 4.s.3.z.k.k.z.k.k.k.k.z.c.k.k.k.g.y h 5.h Z P 0.c.                              ",
"                                k.v.k.k.k.c.6.5 v k.3.s.k.s.5.C s.f.&...8.g.k.l.*.o q.2.; e # 9.n.                              ",
"                                k.v.k.k.s.4.k.5.7 +.2._ l.J B ,.k.&.b ] #.s.h.$.Y } r.6 $ 4 , G                                 ",
"                                  k.k.k.a.F g.z.r.^ #.w.g.k.k.k.k.k.k.d.4.X.X.! / k.a.V F a , >                                 ",
"                                    k.k.k.k.k.g.z.w.7.x.k.g.k.k.k.z.k.5.&.6.R +.k.y.h.c.k.B *                                   ",
"                                    k.c.k.g.k.g.g.k.m.k.k.g.C.c.s.y.z.j. .x.l.k.k.6.w.g.k.x *                                   ",
"                                      k.v.k.k.k.g.z.C.k.k.k.n.k.y.! r.B./ n.C.7.y.m.k.l.v.C                                     ",
"                                        k.v.k.k.k.k.z.k.k.g.s.k.k.s.j.k.7.r.! / c.V.f.v.k.                                      ",
"                                          k.k.v.k.k.f.g.k.k.k.k.k.7.#.o.R T U 7.b.C.k.k.                                        ",
"                                              g.k.c.k.k.g.k.k.l.k.e.! @.X.+.W O.y.m.                                            ",
"                                                k.k.k.v.z.k.s.s.k.c.l.r.m.0.E !                                                 ",
"                                                    s.h.f.M.S.A.c.k.k.k.c.+.                                                    ",
"                                                                                                                                ",
"                                                                                                                                ",
"                                                                                                                                ",
"                                                                                                                                ",
"                                                                                                                                ",
"                                                                                                                                ",
"                                                                                                                                ",
"                                                                                                                                ",
"                                                                                                                                ",
"                                                                                                                                ",
"                                                                                                                                ",
"                                                                                                                                ",
"                                                                                                                                ",
"                                                                                                                                ",
"                                                                                                                                ",
"                                                                                                                                ",
"                                                                                                                                ",
"                                                                                                                                ",
"                                                                                                                                ",
"                                                                                                                                ",
"                                                                                                                                ",
"                                                                                                                                "
};
