/* XPM */
static char *_058d61c336a4397a27062fa0e322f71OkRFM9VtRxv9Q9Fd[] = {
/* columns rows colors chars-per-pixel */
"64 64 3 1 ",
"  c None",
". c #5B445E",
"X c #FFE100",
/* pixels */
"                                    ...X                        ",
"                                  .XX..   ..XX..X               ",
"                                 .XX.    XXXX..XX.XX....X       ",
"                                .XX.    XXXX.X..X....X          ",
"                               ..... .X.X.XX.X....X             ",
"                              XX..XX.. X..XXXX..X               ",
"                              XX.XX.X. .X..XXXX        ....X    ",
"                             XXX..XXX...XX.XXX        XX....X   ",
"                             XXXX.X.X..XX.XX.X X    .XX..       ",
"                            XXXXX..XX...XX.X.  .X X...XX        ",
"                           XXXXXX..X..XXXXXXXXXXXX...XX         ",
"                          XXXXXXXXX..XX..XX..XXXX..             ",
"                          XXXX.XXX...X.X.XXXXXX.X.      X       ",
"                          XXXXXXXXX...XXX....X.XX     XXXX.     ",
"                        ..X.XXXX.X...XX.X.XXX.XXX XXX.XX..XX    ",
"                       .XXXXX...X...XX..XXXXX.XXXXX.....XXX.X   ",
"                       XXX.X.X.XXX.XX.X....XX..XXXXXXX      X   ",
"                       .XXXX...XXX......XXX....XXXXX            ",
"                       .XX..XX.XXX.X.X..XXXX.X.XXXX             ",
"                       .XX.XXXXXXXX.X..X.XXXX....XX             ",
"                       ...X XXXXXXXX.....XXXXXXX.XX             ",
"                          X .X.....XX..X..XXXXXX.X              ",
"                          X..X XX..XXX.XX.X.XXXX.X              ",
"                          X..  XX.XX.XXXXXX.XXXX..              ",
"                          .XX  X.XX ..XX...XXXXX..              ",
"                           X.   X.  .X..XX...XXX.X              ",
"                                ..  .XXXXX.X.XX..X              ",
"                                   .XXXXXX.XXXX.XX              ",
"                                   .XXXXXX.XXX.X.X              ",
"                                  X.XXXXXX..X....               ",
"                                  XXXXXXX..XX..X.               ",
"                                 XXXXXXXXX.X..X.                ",
"                                XXXXXXXXX.XX.XX.                ",
"                               ..XXXXXXX..X.XX.                 ",
"                              .XXXXXXXX..XXXX.                  ",
"                             XXXXXXXX..XXXXX.X                  ",
"                            XXXXXXXXXXX.XXX.X                   ",
"                           XXXXXXXXXXX.XX..X                    ",
"                         XXXXXXXXXXXX.XX..X                     ",
"                         .XXXXXXXXXX.XXX.X                      ",
"                        XXXXXXXXXXX..XX.X                       ",
"                       .XXXXXXXXXXX.XXX.X                       ",
"                       XXXXXXXXX.X..XX.X                        ",
"                      XXXXXXXXXX.X..X.XX                        ",
"                      XXXXXXXXXX.X..X.X                         ",
"                     XXXXXXXXXXXXX...XX                         ",
"                     XXXXXXXXXXXXX...XX                         ",
"                     .XXXXXXXXX.XX..XXXX                        ",
"                X.. XXXXXXXXXXXX.XX.XX.X                        ",
"               .... XXXXXXXXXXXX.XXXXX..                        ",
"              ..X.. .XXXXXXXXXXXXXXX...XXX         X...X        ",
"             ...X.. .XXXXXXXXXXXX.XXXX...X          ....X       ",
"            .XXXX..X.XXXXXXXXXXXX.X..XX.X.          .X..XX      ",
"            X.X  X.X.XXXXXXXXXXXXXXXX...... .X.     X.XXX.      ",
"           X.X   X.XXXXXXXXXXXX..XXXXXX...XXXX..    X.XXXX.     ",
"           X.   XXXXXXXXXXXXXX..X..X.XXX..XXXXXXX   .XXXXXX     ",
"           X.    X.XX.XXXXXX...X.X.X.XXX..X..X.XXX  ..XXX.X.    ",
"           .  X.X...X.XXXXX.XXXXX..X..XX..XXXXX.XX X..XX X..    ",
"              X.....XX....XXX.XXX.XXXX.XX..XX..X.XXX..XX XX.    ",
"               X..XXXXX.....XXXX.X.X..XXXX..X...XXX.XXX   X.    ",
"                .XX XXX.....XXX.XXXX.X.XX.X..XX.XXXXX     ..    ",
"                 ....XX.....XXXXXXXXX..X..XXXXX...XX      .X    ",
"                  X...X....XXX...XXXXXX...XXXXXXXXXX      X     ",
"                  XX X XXX..X...XXXXXXXXXXXXXXXXX.XXX           "
};
