/* XPM */
static char *_18b54ad905f403d9347788a82b4786e3vksQApepb6mVhyZ[] = {
/* columns rows colors chars-per-pixel */
"64 64 244 2 ",
"   c None",
".  c #001713",
"X  c #002A00",
"o  c #002835",
"O  c #23373D",
"+  c #064F32",
"@  c #24653F",
"#  c #2A4D2B",
"$  c #55753E",
"%  c #00484B",
"&  c #055B46",
"*  c #075858",
"=  c #125652",
"-  c #2A4E58",
";  c #18694D",
":  c #366A43",
">  c #2B724C",
",  c #07587A",
"<  c #07526D",
"1  c #305D7D",
"2  c #076662",
"3  c #056779",
"4  c #117270",
"5  c #2C6D6F",
"6  c #457957",
"7  c #4C7847",
"8  c #477666",
"9  c #537170",
"0  c #6A7F68",
"q  c #6B7C50",
"w  c #198255",
"e  c #159F54",
"r  c #398659",
"t  c #279756",
"y  c #318C53",
"u  c #0CBB5C",
"i  c #35A65E",
"p  c #1D8565",
"a  c #1A976A",
"s  c #199A7D",
"d  c #12827A",
"f  c #338D6D",
"g  c #379766",
"h  c #38937A",
"j  c #238C71",
"k  c #1AAD68",
"l  c #17BA6A",
"z  c #1DBB76",
"x  c #27BA6C",
"c  c #2AA277",
"v  c #36AA76",
"b  c #24BB7B",
"n  c #28BC74",
"m  c #31B071",
"M  c #4A8959",
"N  c #518852",
"B  c #708B54",
"V  c #75A65D",
"C  c #488A65",
"Z  c #579C6C",
"A  c #4A8874",
"S  c #538774",
"D  c #499672",
"F  c #56B07A",
"G  c #4CAD75",
"H  c #64A277",
"J  c #659076",
"K  c #17C45B",
"L  c #2DC05D",
"P  c #02CC6B",
"I  c #16C76B",
"U  c #18C677",
"Y  c #0FCD78",
"T  c #29C66E",
"R  c #34C669",
"E  c #2AC779",
"W  c #36C77D",
"Q  c #34D17D",
"!  c #2BD476",
"~  c #46DC7D",
"^  c #8C9A5D",
"/  c #97B675",
"(  c #89B368",
")  c #88C169",
"_  c #A6DB79",
"`  c #195888",
"'  c #005996",
"]  c #005C89",
"[  c #097788",
"{  c #1D718B",
"}  c #036998",
"|  c #166998",
" . c #057599",
".. c #156E8F",
"X. c #387E84",
"o. c #297996",
"O. c #3A7B94",
"+. c #257287",
"@. c #0054A4",
"#. c #0368A4",
"$. c #0978A8",
"%. c #1D74A6",
"&. c #0778B6",
"*. c #197CB8",
"=. c #0A66B9",
"-. c #2669A1",
";. c #2378A7",
":. c #2574B5",
">. c #337EA3",
",. c #0278C7",
"<. c #1776C6",
"1. c #0A77D2",
"2. c #2675C7",
"3. c #207FD0",
"4. c #077EF2",
"5. c #217EE5",
"6. c #198C92",
"7. c #3B9782",
"8. c #269497",
"9. c #318995",
"0. c #18AF81",
"q. c #38A385",
"w. c #39B88C",
"e. c #37A493",
"r. c #37B99A",
"t. c #29B78E",
"y. c #1F85A7",
"u. c #1592A6",
"i. c #0B87B6",
"p. c #1889B2",
"a. c #0C81A5",
"s. c #2383AB",
"d. c #259CA5",
"f. c #2885B7",
"g. c #3689BA",
"h. c #2998B4",
"j. c #369AB5",
"k. c #1FB4AC",
"l. c #28BEA6",
"z. c #36B8AB",
"x. c #38A7BA",
"c. c #33AFA6",
"v. c #569B95",
"b. c #4E8F93",
"n. c #739F88",
"m. c #45B787",
"M. c #52BE94",
"N. c #50AA91",
"B. c #68A985",
"V. c #68B094",
"C. c #4797B7",
"Z. c #6398AA",
"A. c #43A5BE",
"S. c #4FABB1",
"D. c #70BCB7",
"F. c #1DC483",
"G. c #1CD08F",
"H. c #2AC888",
"J. c #38C98A",
"K. c #29D989",
"L. c #37DB86",
"P. c #2AC897",
"I. c #2ED999",
"U. c #3BD795",
"Y. c #3CCE9E",
"T. c #16E283",
"R. c #2AE395",
"E. c #37E795",
"W. c #3EE98E",
"Q. c #35CBAD",
"!. c #3AD7A1",
"~. c #32CEAF",
"^. c #43DA8C",
"/. c #44C79A",
"(. c #56CF99",
"). c #46D898",
"_. c #58D698",
"`. c #4CC78A",
"'. c #73CA99",
"]. c #48E586",
"[. c #49E89B",
"{. c #4CF293",
"}. c #61EA98",
"|. c #48C8A5",
" X c #51CAA9",
".X c #49D5A8",
"XX c #47C6B6",
"oX c #58DFB3",
"OX c #6DD5AF",
"+X c #49E5A7",
"@X c #54E9A8",
"#X c #59F6B6",
"$X c #51EFB1",
"%X c #63F7A9",
"&X c #68ECB2",
"*X c #1896C9",
"=X c #1A86D7",
"-X c #189CD6",
";X c #0E86CE",
":X c #2487C7",
">X c #3197D6",
",X c #3196CC",
"<X c #1DAFC2",
"1X c #2BA9CC",
"2X c #39B6C8",
"3X c #2AA6D9",
"4X c #34B1CF",
"5X c #0586EA",
"6X c #1888E7",
"7X c #1496E5",
"8X c #0188F8",
"9X c #1A87F2",
"0X c #1D9FF2",
"qX c #2C8FEB",
"wX c #1BA7E9",
"eX c #1FB5E0",
"rX c #23A6E2",
"tX c #35AAEC",
"yX c #4399CA",
"uX c #43BBCA",
"iX c #46B5CE",
"pX c #68B1CD",
"aX c #50BCF5",
"sX c #4CCBC9",
"dX c #58D5C3",
"fX c #5CD6D3",
"gX c #48C6D2",
"hX c #6FCCD3",
"jX c #53F1C4",
"kX c #69FAC3",
"lX c #7AF1C8",
"zX c #46C2E8",
"xX c #58CEEB",
"cX c #6CD6F4",
"vX c #62E4E9",
"bX c #87BD94",
"nX c #8EC79C",
"mX c #BFDA94",
"MX c #87CEB2",
"NX c #AFEFA5",
"BX c #FAFDB5",
"VX c #90F5CD",
"CX c #93F8E0",
"ZX c #BCFFE8",
/* pixels */
"                                                                                                                                ",
"                                                                                                                                ",
"                                                                                                                                ",
"                                                                                                                                ",
"                                                                                                                                ",
"                                                                                                                                ",
"                                                                                                                                ",
"                                                                                                                                ",
"                                                                                                                                ",
"                                                                                                                                ",
"                                                                                                                                ",
"                                                                                                                                ",
"                                                                                                                                ",
"                                                                                                                                ",
"                                                                                                                                ",
"                                                        ;.C.pXcX=X8X                                                            ",
"                                                ;Xf.+.* h hXhXyX:X                                                              ",
"                                              =X%.+.X.v.D 4 ..:.                                                                ",
"                                          6XqX:.- 8 b.O.;.2.=X6X                                                                ",
"                                        5XqX2.` b.9 O.%.<.4.9X                                                                  ",
"                                        5X6X%.` b.o.&.5X8X8X                                                                    ",
"                                        5X=X%.b.9.p.;X5X8X                    :.                                                ",
"                                        4.*.5 v.+.|  . .$.$.[                 V.NXF                                             ",
"                                      4.qX:.= b.2 8.|.XXfXhXXXc  X        ` = nXNXC                                             ",
"                                      7XqX, v.Z w w.[.$XjXl.E U.!.!.&X XZ.5 8 S v.5                                             ",
"                                      ,.f.{ N.G m _.L.E .X#X@X].#X&Xi y 6 J H > & {                                             ",
"                                    =X| { 9.4 v W )..Xm.e.7.m.`.G t > C 8 S y y m.7.                                            ",
"                                =.2.;.C.v.4 c w.n k a a p ; y g i G y g A r _.}.)._.                                            ",
"                                hXv.- pXh OXCX(.t e e z t.E q.a f g G v w./.P.R.K.E /.                                          ",
"                                ZXJ ; & f CXCXg y i x T I l b k c v w m.J.z G.R.E.E.).                                          ",
"                              A.B.N : r '.VXD V.'.F v t.U Y H.J.n ).|./.J.[.U.+X+XkX[.J.                                        ",
"                              s.= : M @ '.MX: N 7 N (.kXjX$X$X@XE.#X#XU.E.K.U.k J.b ].x m.                                      ",
"                              =Xg.+.> H V.B.# q q ( g @XP.I.#XH.I.I.W.K Y P E.! T T W @X8.f.                                    ",
"                            qX=XyXC.A bXH N $ ^ BXmXy &XF.F.{.T H.K.{.K P T.E.E.T `.`.dX,X<.9X                                  ",
"                            &.&.>X| 6 / V ( _ ) / B M _.! Y ~ ~ T W ].Q I U H.J.}.m.e.[ :X5.                                    ",
"                          h.x.x.;.-.5 B ( ( ) ( X $ + OX[.! ! ].R R n {.[.z P.H.`.q.% p.tXaX                                    ",
"                          sXdX(.N.* 5 9 0 0 n.C + + + f @X).T {.~ R u L.%Xz P.t.b .XvX3X-X                                      ",
"                        c.|.J.&XN.* +.1 - O 1 O.b.j . % 4 .X[.I %XT ! u H.U.H.I.0.Q.u.i.i.                                      ",
"                      4XfXJ.J.VX7.9.pXZ.- o 1 o.s.f.9.< % d t.).$XU I.Y H.+XP.dXdX3 9.iX                                        ",
"                      3XgXc.).t.3 j.S.v.MXD.S.h.*.>X:.yXyXu.s +XXXP.I.~.r.P.6.z.x.%.9.                                          ",
"                      &.1XgXsX6.tXp.6.OXG '.&X8. . .' &.#.;.r.s d.uXd.d., , * 3 ] }                                             ",
"                      ,.-XzXzX1X3Xi.S.(.R }.VX2 3 a.i.=X,.' 4 & 3 ] } ;.-.-.S.hXf.2.                                            ",
"                            ;X&.*X<XvXQ.H.H.Q.6.gX2XeX0X5.@.{ e.hX;.&.<.,X,XcXxXiX>X                                            ",
"                                -X<X1X~.~.l.u.p.iX1XrX0XqX3.iXhXfXy.=.,.;X1XxX4X4X>X                                            ",
"                                  wXuXvXeXeXeX7X3.5.5X1.0XrXxXcXk.k.wX6X1.&.                                                    ",
"                                    }  .                                                                                        ",
"                                                                                                                                ",
"                                                                                                                                ",
"                                                                                                                                ",
"                                                                                                                                ",
"                                                                                                                                ",
"                                                                                                                                ",
"                                                                                                                                ",
"                                                                                                                                ",
"                                                                                                                                ",
"                                                                                                                                ",
"                                                                                                                                ",
"                                                                                                                                ",
"                                                                                                                                ",
"                                                                                                                                ",
"                                                                                                                                ",
"                                                                                                                                ",
"                                                                                                                                ",
"                                                                                                                          8X8X8X"
};
