/* XPM */
static char *_dd9634a2cfa4e12b087f1fc761059ab5cNyPgtRBs14CDkr[] = {
/* columns rows colors chars-per-pixel */
"64 64 248 2 ",
"   c None",
".  c #0B0A09",
"X  c #120C0B",
"o  c #1B0F0E",
"O  c #18130E",
"+  c #1B1413",
"@  c #1D1A1B",
"#  c #191515",
"$  c #130F11",
"%  c #231413",
"&  c #2A1514",
"*  c #211A1C",
"=  c #2C1B1C",
"-  c #291A15",
";  c #341C1A",
":  c #200E0D",
">  c #2A2519",
",  c #352C1C",
"<  c #3B331E",
"1  c #1C1C26",
"2  c #241E23",
"3  c #321E22",
"4  c #282628",
"5  c #352225",
"6  c #3C262A",
"7  c #3A262A",
"8  c #2C3329",
"9  c #3A3624",
"0  c #2C2A35",
"q  c #282735",
"w  c #342D37",
"e  c #2D3337",
"r  c #393839",
"t  c #192011",
"y  c #47381C",
"u  c #4A301D",
"i  c #453A29",
"p  c #442C32",
"a  c #492E33",
"s  c #493537",
"d  c #55373C",
"f  c #512F2A",
"g  c #763335",
"h  c #394538",
"j  c #35412B",
"k  c #47432B",
"l  c #59492A",
"z  c #4A4536",
"x  c #554B36",
"c  c #47533E",
"v  c #58523B",
"b  c #615838",
"n  c #6D522C",
"m  c #746436",
"M  c #74622B",
"N  c #664E1A",
"B  c #373744",
"V  c #33364E",
"C  c #433C4A",
"Z  c #563D46",
"A  c #693C42",
"S  c #743E46",
"D  c #3C4746",
"F  c #3F4653",
"G  c #45494A",
"H  c #475748",
"J  c #5B5A43",
"K  c #474956",
"L  c #455452",
"P  c #4C5A54",
"I  c #4D5D5C",
"U  c #4B5356",
"Y  c #545858",
"T  c #5A4A4E",
"R  c #644547",
"E  c #7B464B",
"W  c #665A46",
"Q  c #79584A",
"!  c #764953",
"~  c #695858",
"^  c #785C59",
"/  c #556657",
"(  c #556657",
")  c #68634C",
"_  c #686954",
"`  c #766659",
"'  c #68735C",
"]  c #787659",
"[  c #766E4B",
"{  c #575A64",
"}  c #4A5961",
"|  c #745C61",
" . c #546562",
".. c #5A6D69",
"X. c #576965",
"o. c #5E726C",
"O. c #5B7067",
"+. c #546767",
"@. c #666269",
"#. c #61756E",
"$. c #677A68",
"%. c #787864",
"&. c #666673",
"*. c #627671",
"=. c #657A73",
"-. c #697D7A",
";. c #697C75",
":. c #70696C",
">. c #8A3A3C",
",. c #8A5537",
"<. c #8F712C",
"1. c #A8773B",
"2. c #8A474B",
"3. c #944A4D",
"4. c #A34A49",
"5. c #B75959",
"6. c #AA5350",
"7. c #927448",
"8. c #B26C51",
"9. c #B15767",
"0. c #887467",
"q. c #B5726C",
"w. c #9F5565",
"e. c #C3625D",
"r. c #C66769",
"t. c #C76A71",
"y. c #C25F5F",
"u. c #7D833D",
"i. c #788469",
"p. c #6D827B",
"a. c #6D8476",
"s. c #768A78",
"d. c #7A907E",
"f. c #6D816C",
"g. c #4D9061",
"h. c #988236",
"j. c #B49838",
"k. c #AB8B37",
"l. c #978648",
"z. c #948854",
"x. c #A89654",
"c. c #B19353",
"v. c #B5A249",
"b. c #B5A357",
"n. c #86896A",
"m. c #97956D",
"M. c #888C74",
"N. c #98887A",
"B. c #8B9677",
"V. c #929775",
"C. c #AD9174",
"Z. c #ADA879",
"A. c #B4AD70",
"S. c #94AE6A",
"D. c #C49349",
"F. c #CFB250",
"G. c #E3BB5C",
"H. c #DCBB6B",
"J. c #C8B974",
"K. c #CFB471",
"L. c #E0B965",
"P. c #DBC452",
"I. c #D8C979",
"U. c #CEC570",
"Y. c #E6D276",
"T. c #E3CD57",
"R. c #877F80",
"E. c #6F8482",
"W. c #758A84",
"Q. c #7D9382",
"!. c #7B938B",
"~. c #7C978A",
"^. c #62BA94",
"/. c #859A89",
"(. c #849C93",
"). c #9B9797",
"_. c #96908A",
"`. c #A09B9A",
"'. c #8BA393",
"]. c #8BA59A",
"[. c #87A296",
"{. c #95A897",
"}. c #9BA993",
"|. c #B8B587",
" X c #AEB08D",
".X c #98ABA4",
"XX c #9BB3A4",
"oX c #9DB7AB",
"OX c #A5B9A8",
"+X c #A5AFA9",
"@X c #959FA3",
"#X c #C5B584",
"$X c #C7B997",
"%X c #CFAB9B",
"&X c #DDB394",
"*X c #ACC4B5",
"=X c #B7C8B7",
"-X c #B4C7AC",
";X c #B9DEA6",
":X c #D6C987",
">X c #D9CA95",
",X c #D9D595",
"<X c #CFCE94",
"1X c #E5DB89",
"2X c #E5D79A",
"3X c #EAE388",
"4X c #ECE596",
"5X c #F4E68D",
"6X c #C5C7A8",
"7X c #CCD4AB",
"8X c #C5CCB7",
"9X c #C6D2B7",
"0X c #D5D7B7",
"qX c #D9D2AC",
"wX c #E4DAA4",
"eX c #E5D3B2",
"rX c #DDE2B1",
"tX c #EAE5A9",
"yX c #F2EBA5",
"uX c #F5F1AC",
"iX c #EAE7B7",
"pX c #F8F4B7",
"aX c #F0EDB7",
"sX c #B5CDC3",
"dX c #BCD0C5",
"fX c #ACEEDA",
"gX c #CCDBCC",
"hX c #C8D6C5",
"jX c #D4DBC8",
"kX c #CADDD3",
"lX c #D2DFD4",
"zX c #D9E1CA",
"xX c #D9E5D8",
"cX c #D4EBD3",
"vX c #E7E8C7",
"bX c #F7F5C6",
"nX c #E6EADB",
"mX c #F6F5D5",
"MX c #EDF1D1",
"NX c #E4ECE3",
"BX c #EDF3EB",
"VX c #EEF3E2",
"CX c #F2F6EE",
"ZX c #F5F7EB",
"AX c #F6F9F4",
"SX c #F7F9F5",
"DX c #F0EEE0",
"FX c #D7E8D1",
/* pixels */
"                                                                                                                                ",
"                                                                                                                                ",
"                                                                                                                                ",
"                                                                                                                                ",
"                                                                                                                                ",
"                                                                                                                                ",
"                                                                                                                                ",
"                                                                                                                                ",
"                                                                                                                                ",
"                                                                                                                                ",
"                                                I.I.Y.                                                                          ",
"                                cX          |. X#X>XwXvXDX                                                                      ",
"                        mXmXbXcX;X;X    0X$X8XjXjXjX0X7X0X0XiX0X$X:X                                                            ",
"                    MXaXaXuXuXuXyX2XiXqX$X0XzXgXjX7X$XA.J.,XiXMX0X>XwX                                                          ",
"                fXcXrX4X1X3X5X5XtX2X$X%X8XBXVXMXzXzXzXzXiXiXaXpXbXtXtXtXbXvXmXmXmXmXbXeX2XeX                                    ",
"                fX;XU.U.U.T.U.1X>X#XqXnXSXSXAXmXvXrX-X7X0XvXbXbXbXpX2X,X2X2X2XwXuXaXaXwXH.H.L.L.1X                              ",
"                ^.S.b.v.v.b.wX<XZ.jXSXSXZXSXZXDXMXiX<X X X X7XvXbXpXpXaX,XI.I.:X>X1X:X#Xb.c.D.D.L.5XtXyX3X                      ",
"                g.u.l.x.A.vXSXNXnXCXCXCXDXCXDXDXMXtX,X<X XB.V.V.6XaXpXpXaX,XJ.K.J.J.J.A.1.8.1.1.F.K.K.I.U.G.G.                  ",
"                  N.6XNXAXSXSXSXSXCXNXjXOXjXnXvXeX>X&X#X#X|.n.] n.Z.tXuXpXpX,XA.b.b.b.z.n ,.,.<.x.x.c.x.8.D.F.5X                ",
"                SXSXSXSXSXSXAXCXBXnXlXhXjXlXvXqX%X%X&X0XeXqX6X Xn.] m.<XaXpXpX,Xx.l.<.N u l l M M M n n M 1.v.K.1X5X            ",
"              SXAXAXBXBXAXBXNXnXxXjXjXjXjXhX6X9XkXxXxXxXxXnXnXvXqX6X|.|.qXuXuXuX:Xz.l y             i u l M 7.x.K.L.F.          ",
"          SXAXAXBXNXBXBXNXxXxXjX8XhXhX9X8X+X=XkXkXcXNXxXxXnXcXjX0X0XvXrXqXtXuXuXuX      j.v.          l.[ b b m ,.1.D.F.        ",
"        CXBXBXxXcXxXBXnXhXdX=X-X=X=X8X+X{.oXsXdXkXkXkXkXzXgXgX9X=X6X0XvXrXiXyXyXuXuX  h.j.T.        k.F.G.  x l f n 1.K.        ",
"      NXNXxXkXdXhXxXkX=X*XOXXXXXOX+X{.(.(.oX*XsXdXsX=X=XdXdXgXgXhXjXjX0XrXrXtXyX5X5X  <.j.P.        k.F.T.  ] W l l m z.J.      ",
"    xXkXgX-XoXXX;XdX*X*XXX'.'.XX'.d.s.Q.].oXoX*XoXoXoX*X*X=X=X*X=X=X8X9X7X7X,X,X1X3X1X<.<.j.        k.F.P.    l.b.  v [ x.#X    ",
"    =X=XOX{.~.XX*XOXXX{.d.a.d.d.;.$.s.!.~.~.~..X].oXoXoXXXXXoXoXOX-X-X8X9X7X7X<X,X3X1X  N j.        M j.F.  <.j.P.    v [ m.    ",
"  OXXX'.d.d.~.'.{.[./.s.$.f.f./ / a.!.W.!.!.W.!.(.(.~.^.]..XXXOXOX=X=X=X-X7X7X6X7X,XU.  <.h.        <.v.    <.k.F.      W ] M.  ",
"  }./.s.d.d.d./.~.d.$.H h / / / o.p.E.-.*.o.f.a.E.W.!.!.(.]..XXXOXOXOXOX}.}. X X|.|.|.                        <.v.        ) %.  ",
"  d.d.f.s.s.s.d.f.( h h j c I #.a.*.*.X. .I X.O...*.-.W.Q.!.(.(.(.].].).}./.M.N.Z.C.Z.                        M k.        J '   ",
"    f.i.f.' f.f.( H h h H O.o.*.o.O. .I L L P F I X.o.$.=.-.p.E.W.!.!.(.'.B.n.n.V.m.m.A.                                  W '   ",
"    ' ( ( ( f.( H c h H O.*.*.*.o.X./ P D D D D D H P P P P / / ..E./.(.'./.d.B.B.B.n.m.S.                                  )   ",
"      c c c c c H h / O.f.g.*.=.*.O. .P P D h 8 e j r h h D K *.W.@X@X+X+X{.}.'./.B.V.V.m.                                  _   ",
"        9 8 9 s s Y =.p.p.p.;.-.=.o.O./ I P D h 8 4 8 0 B +._.).`.`.).).`.+X`.`.}._.B.B.m.                                      ",
"        , O 5 A ~ -.E.E.p.p.p.-.p.a.a.o.X.I I L D 8 4 s 0.q.q.q.C._.q.C._._.`.`.`.).V.B.n.                                      ",
"        > + S ! *.E.E.p.p.p.=.-.p.=.=.*.o.O. .I F D Z w.r.t.t.t.t.t.t.r.r.C.C.q.N.B._.M.i.                                      ",
"      , > i E ~ -.E.E.p.p.;.*.=.p.=.=.a.o.O... .I @.9.9.9.9.y.q.r.r.r.r.e.e.e.q.q.n.0.0.%.                                      ",
"      ( r R 2.@.-.-.-.*.*.*.*.*.o.o.o.O.+. .I P U ! 2.2.2.3.3.w.6.5.5.5.e.e.e.e.5.6.7.2.~                                       ",
"      ;.~ E ! ..*.*.o.....X. . .+.X./ I P F D D r R | | | ! ^ 2.Q 2.2.3.4.6.5.5.5.6.6.,.                                        ",
"      ( ~ S T +.+.{ } +.{ } } U U L F D D D r 8 0 K &.&.&.&.@.@.| ` Q Q E >.3.4.4.4.4.4.                                        ",
"        ! S B } } } } K K K K K K K G F D B e 0 4 C U U Y { &.&.&.:.&.` ` Q n g >.>.>.4.,.                                      ",
"        S f B } F B w w 0 0 0 q q q 0 0 0 0 q 2 1 r #...X.Y L Y { &.&.&.@.@.~ v f f g g >.                                      ",
"        d p K B 0 7 r s r s r r r r r 7 7 4 3 2 * z W.!.(.!.p.o.{ L U { Y { Y T s u u u                                         ",
"      ; = e B r x R W W W W R W J x d i s i p J ~ ) $.Q.(.'.'.'.!.a.X.L h B z G i u u                                           ",
"      : + e 4 7 9 u i 7 9 9 u , , , , > > > z ) x < J ' $.s.s.d.d./.Q.a./ 4 4 7 7                                               ",
"          0 1 # o @ * 2 4 2 2 2 * 1 @ @ @ > J x > c n.] v c H J _ ' $.$._ k , N                                                 ",
"          B 1 . $ 2 3 B C C C V w w 0 0 0 r v < 9 :.0.' v y k b [ ) v j W ) l M h.                                              ",
"          V 1 . . % 3 5 C K C C B B q 4 4 4 k > k %.] W k   x J W W k , v ) x y M                                               ",
"          F q $   * 6 Z p 6 2 * * @ @ @ + O O O > J J k > > k J J c 9 - 9 9 h c ]                                               ",
"          q 1 .     a Z A d 6 3 6 3 6 3 3 3 = % % < k < - > i l z k     t t 8 ( i.V.                                            ",
"          q $ .     s A R R Z d a p p 6 6 3 3 = = & ; - - ; ,             O t j _ ' n.                                          ",
"          B 1       d R R A Z a a a p p 6 6 3 2 ; ; - & & &                   > j                                               ",
"          V 1       a s d a d a a a a p 6 6 5 3 - ; ; & & &                                                                     ",
"            q       p a s a p 6 p p a a 6 7 5 4 > ; ; & % &                                                                     ",
"                      d Z Z p 6 7 6 6 w p 7 5 = - ; o X .                                                                       ",
"                      a s s a p 7 5 3 3 ; = - % : o # @ X                                                                       ",
"                      3 u 6 7 5 5 3 3 - % % o o o % @ @ $                                                                       ",
"                        % & - - - - % & o + $ @ $ @ * #                                                                         ",
"                          + % % % % o X X O @ @ @ > * @                                                                         ",
"                            o + +   . X $ # @ 4 4 @ # @                                                                         ",
"                                        $ @ @ @ * X @                                                                           ",
"                                          . O # * O $                                                                           ",
"                                            X @ 4 @ X                                                                           ",
"                                              $ @ 4                                                                             ",
"                                                                                                                                "
};
