/* XPM */
static char *_63fb0c910424d75976a575464948263wq2TY7Y52lVsX3Zi[] = {
/* columns rows colors chars-per-pixel */
"64 64 12 1 ",
"  c None",
". c black",
"X c #292631",
"o c #5B445E",
"O c #4A656C",
"+ c #8C6757",
"@ c #548579",
"# c #7DD560",
"$ c #8A579F",
"% c #7784BD",
"& c #C9A781",
"* c #8EBFD5",
/* pixels */
"                                                                ",
"                                   XooX    oooXX                ",
"                                 o$$oo   o$$$ooX   ooooo        ",
"                                o$$oX   $$$$oX o+++oooXX        ",
"                               o$$oX   $$$$oXXo+ooooX           ",
"                              Xoooo  ooOo$$$XooooX              ",
"                              oOXOXoo XXo$$$XXo                 ",
"                             XOOX$XOo oX o$$oX        o+oooo    ",
"                             X$$o$o$$ooXXo$$o        ++ooX      ",
"                             X%%oo$$$oo.XO$$X  X   Xo+oo        ",
"                            XO$%$oo$oXoO$$$o  Oo XoooXX         ",
"                           XO%O%$oo$o$$$$o$oX$$oXXooX           ",
"                           o$%$$$$o$o$$oXXoo$$$oXoX             ",
"                          o@O%$%$$oo$$ooo$$$$$oXXX     ooo      ",
"                          $%@$+@$$XoooXXooooooXXX    o++o++     ",
"                         X@o%$$O$$ooXXXooXXXXXXX.XXoo++ooooo    ",
"                        oOO$$$Oo$o$o$Oo$o$oXXooXXXoooXX    XX   ",
"                        $OO$o$oo+$o$$oXooo$oXooXXXXXX       X   ",
"                       o$+Xoooo++oo%oooo$$$ooooXXXX             ",
"                       oo&X++++&++o+oooo$$$$ooooXXX             ",
"                        o@Xo++oX#XoOoXooo$%%$o$ooX.             ",
"                        oXOXOOoXXXXoX+oooX$%%$$$oX              ",
"                        O +OOXo@oooooXoOooX$%$$$oX              ",
"                          $Ooo +oooXoOoOOoXo%$$%oX              ",
"                          +oo  &XoXXoOOOOoXo$$$$oo              ",
"                          O$o  +oXoXooOOoooo$$$$oX              ",
"                           o    $o XoOoOOOoo$$$ooX              ",
"                                o  ooOOOOOoX$$$oXX              ",
"                                   oOOOOO@oX$$ooXX              ",
"                                   oOOO@@@Xo$$ooo               ",
"                                  XoO@@@@Ooo$oo$o               ",
"                                  oOO@@OOoo$$o$$X               ",
"                                 o@@@OOOOOo$o$$o                ",
"                                XO@@@@@OOo$o$$oX                ",
"                               oo@@@@@@Ooo$$$oX                 ",
"                             oOOO@@@@@OXo$$$oX                  ",
"                            oOOOOOOOOooo$$$$X                   ",
"                           O@@@@OOOOOoX$$o$oX                   ",
"                          O@@@@@@OOOoo$$ooo                     ",
"                         XO@@%@@@OOoo$$$oX                      ",
"                         OO@*@@@@OoXo$$$oX                      ",
"                        O@O%*@@@@oXo$$$oX                       ",
"                       O@@O*%@OOoXoo$$oX                        ",
"                       @@@O@OOOOoXoo$oXX                        ",
"                      O@@@%@@@@@oXoo$oX                         ",
"                      O@@*@@@@@@XXoooXX                         ",
"                      X@@%@@@@@OXXoooXX                         ",
"                     Xo@@@@@@@OoXXooXXXX                        ",
"                 Xo  oOO@@@@@OOOoXXoXXoX                        ",
"                ooo  O@OOOOOOO@OoXXXXXoo                        ",
"               ooXoX O@OOOOO@@@@OXXXooo$XX          XXX         ",
"              XooXoX O@@OO@@@@@@OoXo$$oooo           oooo       ",
"             XooXXoo o@@@@@@@@@OOoXo$$$oXo           oXooX      ",
"             ooXXXoo oO@@@@@@@OOoXXX$oooooo o$o      oXoXXX     ",
"             +o  .XoXoO@@@@@OOOooXXX$$$ooo$Xo$ooo    oXXo+o     ",
"             o   XXXXoOO@@@OOOooXXoXo$$$oo$Xo$o+&+  XoXXo++     ",
"             o X XooXXOOOOOOoooXX$$Xo$$$ooXo$Xo+&+  XooXo++o    ",
"             X XooooXXoOOOOoXXXo+oo$oo$$$oX$$oX o&+ XoXXXooo    ",
"             o XXoXooXXoOooXXXX&&oo$$$oo$$o$$ooXX+oXooXX XoX    ",
"                X+o XXXoooooXX+&+oo$o$$$$$o$$oooXo+XXXXX XXo    ",
"                Xo+  XXXooooXX&+oXXXo$o$$ooooXXoXX+XX     o     ",
"                 Xo+ooXXooooX+++oXXXXo$$ooXXXXXooXoX      o     ",
"                  XoooXXooooo++oXXXXXXXooXXXXXXXoo+X      o     ",
"                  .Xoo  XooooooooXXXXXXXXXXXXXXXXXXX.     X     "
};
