/* XPM */
static char *fb3baf87c0914cb88e6738cc51166a9417oq3Acga6f8DdEL[] = {
/* columns rows colors chars-per-pixel */
"64 64 11 1 ",
"  c None",
". c black",
"X c #292631",
"o c #5B445E",
"O c #4A656C",
"+ c #8C6757",
"@ c #548579",
"# c #8A579F",
"$ c #7784BD",
"% c #C9A781",
"& c #8EBFD5",
/* pixels */
"                                                                ",
"                                   o#oX    oooooX               ",
"                                 o##oX   O####oX  ooooooX       ",
"                                o##oX   ####oXXo++oooo          ",
"                               oo#oo   O####oXoooooX            ",
"                              XoooO XoXoo###oXooo               ",
"                              X#XOooo   Xo##oXX        ooX      ",
"                             .O#X#X#o oo oo##X        +++oooX   ",
"                             X$$oOO##ooXXX##oX .    o++oo       ",
"                            Xo#$oo#o#XXXo###o  X   oooXX        ",
"                           Xo$#$#oo#ooO#####  #oXXoooXX         ",
"                           o#$###oo#oo##ooooX###XooX            ",
"                          X#O$#$###oo##ooooO###oXo              ",
"                          #&@#O@##ooooXXooO###oXX      +ooo     ",
"                         .@o###@##XooXXXooooooXXX   Xo++o++o    ",
"                        Oo##$###oooo##X##ooXXXXXXXXooooooooo    ",
"                        OO@#Oooo#Oo##oooo#oXXooXXXoXXX     XX   ",
"                       O+oooo#o+o#o$ooXooo##oooXXXXX        .   ",
"                       o#+o+oo+%o+oooooo###ooXoXXXX             ",
"                       O@+oo++o%ooo+oXoo##$#ooooXXX             ",
"                       oXOoX@@XXOXooXoooXo#$###ooXX             ",
"                       Xooo @XoXXXXooooOooo#$###oX              ",
"                          + #XXOoooXXOoOOooo$##$oX              ",
"                          #ooX @XooXXOOOOOXo###$oo              ",
"                          +oX  %XoX ooOOOooX#$##oo              ",
"                          o#o  oOoX oooooOoo#$##oX              ",
"                                #o  oOOOOOooo$#ooX              ",
"                                   ooOOOOOoX###oXX              ",
"                                   oOOOO@@OX##oXoX              ",
"                                   oO@@@@@oo##oooX              ",
"                                  XOO@@@@OoO#oo#o               ",
"                                 XO@OOOOOOo#oo##X               ",
"                                XO@@@@OOOoO#o##o                ",
"                               XX@@@@@@OOo#o##o                 ",
"                              XOO@$@@@OOX####oX                 ",
"                             oOOO@@OOOoXo###oX                  ",
"                            OOOOOOOOOOoo###oX                   ",
"                           O@@@@@OOOOoo##ooX                    ",
"                          O@@$@@@OOOoo##ooX                     ",
"                         XO@$@@@@OOoo###oX                      ",
"                        OOO@&@@@@Oooo###X                       ",
"                        @@O&$@@@OXXo###oX                       ",
"                       O@@O&@OOOoXoo##oX                        ",
"                      o@@@OOOOOOoXoo#oXX                        ",
"                      O@@$$@@@@@oXoo#oX                         ",
"                      O@@&@@@@@@XXoooXX                         ",
"                     XO@$@@@@@@OXXoooXX                         ",
"                     XO@$@@@@@OoXXooXXXX                        ",
"                Xoo  oOO@@@@@OOOoXXoXXoX                        ",
"               XoXo  OOOOOOOOO@OoXXXXXoo                        ",
"              Xoooo  O@OOOOO@@@@OXXXooo#XX         .XooX        ",
"             XXoXXoXXO@OOO@@@@@@OoXX##oooo          XoooX       ",
"             oXXXXoXXO@@@@@@@@@OOoXo###oXo   X      XoXooX      ",
"            o+XX XooXO@@@@@@@@OOoXXX#oooooo o#o     XoXoooX     ",
"            o+X  XoXXOO@@@@@OOOooXXX###ooo#X##ooo   XoXXo+o     ",
"            oo   XXXXoO@@@OOOOooXooXo###oo#X##o%+   ooXX+++     ",
"            X    XoXXoOO@OOOoooXo#oXo###ooXo#Xo+%+  ooXXo++o    ",
"            o  XooooXXOOOOOoXXX++oo#oo###oX##oXX+%XXooXX.Xoo    ",
"            X  XooXooXooOoXXXX+%+o####oo##o##ooXo+oXooXX Xoo    ",
"               .X+oXXXXoooooXo%++Xo#o#####oo#oooX+ooXXX   Xo    ",
"                o+o XXXXooooX%%oXXXXo#o##ooooXXoXooXX     o     ",
"                 ooooXXoooooo%++XXXXXo##ooXXXXXooooX      o     ",
"                  XoooXXoooo+++ooXXXXXXoooXXXXXXoooX      X     ",
"                  XXXo .Xoo+oXooXXXXXXXXXXXXXXXXXXXX.           "
};
