/* XPM */
static char *ed24a33f296a4c9caac238519a114e81xotY3gtrVMOGlVay[] = {
/* columns rows colors chars-per-pixel */
"64 64 213 2 ",
"   c None",
".  c #2E2307",
"X  c #2B2308",
"o  c #2F2907",
"O  c #3B2C07",
"+  c #352508",
"@  c #382709",
"#  c #322B09",
"$  c #3C2C09",
"%  c #362607",
"&  c #36310B",
"*  c #3D330B",
"=  c #3C380D",
"-  c #412E0B",
";  c #43330B",
":  c #4A340C",
">  c #443A0D",
",  c #4B3C0E",
"<  c #52370D",
"1  c #533B0D",
"2  c #5C3D0F",
"3  c #473C11",
"4  c #4D3E11",
"5  c #523B10",
"6  c #43410F",
"7  c #4C410E",
"8  c #54410E",
"9  c #5B440F",
"0  c #454110",
"q  c #4D4312",
"w  c #4F4E12",
"e  c #534513",
"r  c #5B4611",
"t  c #534913",
"y  c #5C4B14",
"u  c #554D1A",
"i  c #5A4E1A",
"p  c #524719",
"a  c #515215",
"s  c #5D5316",
"d  c #5D551A",
"f  c #585619",
"g  c #62450E",
"h  c #68460F",
"j  c #63480F",
"k  c #69480F",
"l  c #79520F",
"z  c #634510",
"x  c #6B4613",
"c  c #644C13",
"v  c #6C4C14",
"b  c #604D18",
"n  c #714512",
"m  c #734D12",
"M  c #7D4D15",
"N  c #635315",
"B  c #6A5416",
"V  c #645817",
"C  c #6D5917",
"Z  c #64541A",
"A  c #6C531A",
"S  c #655A1B",
"D  c #6A5C1B",
"F  c #735115",
"G  c #7C5515",
"H  c #725A16",
"J  c #74561A",
"K  c #7C551D",
"L  c #725C1C",
"P  c #7B581A",
"I  c #7C5A17",
"U  c #606117",
"Y  c #63621D",
"T  c #6F631B",
"R  c #6E6818",
"E  c #696317",
"W  c #73631E",
"Q  c #7B641C",
"!  c #746A1F",
"~  c #7A6C1D",
"^  c #786717",
"/  c #7C701C",
"(  c #655A20",
")  c #6A6B22",
"_  c #696320",
"`  c #746522",
"'  c #7C6421",
"]  c #746C24",
"[  c #7D6C23",
"{  c #6E7827",
"}  c #6D7528",
"|  c #7D7323",
" . c #737C28",
".. c #7B792A",
"X. c #707426",
"o. c #855517",
"O. c #835A1A",
"+. c #8C5C19",
"@. c #865A16",
"#. c #915B19",
"$. c #82621E",
"%. c #8D621B",
"&. c #846F1E",
"*. c #8A6C1D",
"=. c #836513",
"-. c #91631D",
";. c #99641D",
":. c #9F6D1F",
">. c #83721B",
",. c #8C741B",
"<. c #96781E",
"1. c #98721D",
"2. c #A1671E",
"3. c #845D22",
"4. c #846221",
"5. c #816D23",
"6. c #8B6A22",
"7. c #876927",
"8. c #9B6723",
"9. c #946C21",
"0. c #9C6A23",
"q. c #9C6E2B",
"w. c #936B26",
"e. c #857324",
"r. c #8C7421",
"t. c #857A26",
"y. c #8C7B22",
"u. c #83732C",
"i. c #8D7628",
"p. c #9A7B23",
"a. c #93772A",
"s. c #977925",
"d. c #947D30",
"f. c #A36A23",
"g. c #A37222",
"h. c #AC7423",
"j. c #A37B24",
"k. c #A67829",
"l. c #B17728",
"z. c #B27C2A",
"x. c #7C822B",
"c. c #758027",
"v. c #AC8D1D",
"b. c #8A8126",
"n. c #83822B",
"m. c #8B852C",
"M. c #8C8A2D",
"N. c #928429",
"B. c #938B2E",
"V. c #9B8427",
"C. c #9A932C",
"Z. c #9A8A32",
"A. c #908B30",
"S. c #9D9331",
"D. c #9A9236",
"F. c #A48525",
"G. c #AD832B",
"H. c #A28C2A",
"J. c #A78E28",
"K. c #BE872F",
"L. c #BE882B",
"P. c #B38828",
"I. c #AA932B",
"U. c #A49B2C",
"Y. c #AB9F2C",
"T. c #AA9227",
"R. c #B29C2C",
"E. c #BA962D",
"W. c #A38332",
"Q. c #AC8635",
"!. c #BC8B3B",
"~. c #A29535",
"^. c #AA9331",
"/. c #AC9C35",
"(. c #A49E34",
"). c #B09B33",
"_. c #BC9C35",
"`. c #B3923A",
"'. c #ADA42E",
"]. c #B8A027",
"[. c #B6A52D",
"{. c #B3A135",
"}. c #BEAF39",
"|. c #B9A435",
" X c #C7982C",
".X c #C18E30",
"XX c #C59536",
"oX c #CAAF2B",
"OX c #C3A636",
"+X c #CCA43E",
"@X c #CCAC3A",
"#X c #CDAE34",
"$X c #D3A63D",
"%X c #C8B139",
"&X c #D7B937",
"*X c #D6BB3C",
"=X c #D9C239",
"-X c #E1C638",
";X c #BB8B44",
":X c #A99744",
">X c #BB9344",
",X c #BDAC42",
"<X c #CEAA47",
"1X c #DFBF4F",
"2X c #DAB344",
"3X c #CCB955",
"4X c #CDC148",
"5X c #D5C542",
"6X c #DBC747",
"7X c #E4C945",
"8X c #E5D151",
"9X c #EADB55",
"0X c #EDDE69",
/* pixels */
"                                                                                                                                ",
"                                                                                                                                ",
"                                                                                                                                ",
"                                                                                                                                ",
"                                                                                                                                ",
"                                                                                                                                ",
"                                                                                                                                ",
"                                                                                                                                ",
"                                                                                                                                ",
"                                                                                                                                ",
"                                                                                                                                ",
"                                                                                                                                ",
"                                                                                                                                ",
"                                                                        G.XX<Xj.@.+.g.                                          ",
"                                                                  W.a.6.s.p.*.F v k l G +.-.                                    ",
"                                                                  5.` ' ^ H B c c c c j k m @.                                  ",
"                                                                u.` W ` L N N L [ [ C y j j k l 4.                              ",
"                                                              Z.[ ] ` ` D y V N././.t.E y 9 j j m 4.                            ",
"                                                              B...] ] T y s t.}.5XY./ U w 7 8 9 j k                             ",
"                                                            V.B.x...) s w s | ~.~.M.! U 7 > ; 1 9 g x                           ",
"                                                          G.,.B.M.n.Y ; O - O O $ 3 0 t 7 * O * 8 9 g F                         ",
"                                                          1.Q (.U.U.<.c : - O O * $ $ $ ; ; O O , 9 9 B                         ",
"                                                        j.l C C.'.'.'.R.v.=.9 ; ; * ; ; ; $ O O ; 1 9 j                         ",
"                                                        g.j 8 b.[.[.oX=X=XoXv.,.C y q 3 ; ; $ $ ; 1 8 9                         ",
"                                                      _.*.9 , / 4X5X=X-X&X#X|.R.H.y.[ S t , ; O ; 1 5 c                         ",
"                                                      p.' b , N }.8X6X=X#XOX_.).I.S.N.y.[ T q $ , 4 e b 7.                      ",
"                                                    _.$.L y e y e.<X7X#XOXJ.^.^.~.C.B.m.b.t.Z ; > 4 e A                         ",
"                                                    p.h Z b r C &.F.*X=XE.<.V.I.S.D.A.n.x.n.] d e 4 y '                         ",
"                                                    G < Z 5.' ` V.p.s.{.).H.y.,.b.A.M.x.x. .} _ S S L                           ",
"                                                  W.g ; L ^.|.y.r.,.L D [ Z.t./ t.M.n.x.c. .{ ) _ T a.                          ",
"                                                  4.< : A <X9X,XL L D y t s V ! ` m.m.x. .{ } _ t 3.                            ",
"                                                k.v ; , Z D.9X8X^.Z r t w 7 > = = u u f f a u : 5 a.                            ",
"                                                0.2 ; 7 V u.).6X+Xp.r , , 7 = & # X # & = * ; ; n                               ",
"                                              <XI , > 8 U / >.J.R.F.>.B 7 = & # # # X & * * ; z q.                              ",
"                                              `.h , 7 V ! >.^ H r.V.,.>.E w > & # * $ $ * 3 z w.                                ",
"                                              -.g 7 t V ^ >.^ B y d E R U a 6 = & p 4 ; q y w.                                  ",
"                                            Q.o.9 r Z W / >.^ N p q 3 , 6 6 = & * ( ( 3 5 3.>X                                  ",
"                                            8.m r i D [ e.>.L i p q > $ # X X . # ` u.5 K ;X                                    ",
"                                            +.v y Z ' e.5.W Z i p 3 ; $ + . . . $ 7.:XK Q.                                      ",
"                                          g.O.v A W Q [ ] S i p 5 4 - @ % % % @ : d.3X>X                                        ",
"                                          G.G A A L 5.` S d u p , , - - @ @ $ - 2 `.0X                                          ",
"                                          G.O.J J ' 4.L Z i i i r 5 : - - $ - < G <X                                            ",
"                                          G.4.4.Q 5.' L b b b v J A 5 : - : 5 x k.                                              ",
"                                          E.L.j.9.7.4.L A c c Q R.I.c : : < x q.                                                ",
"                                             Xh.:.*.Q J A A v 4.[.H.v 1 2 n q.                                                  ",
"                                             Xz.g.;.3.P J F v F J F J P M 8.                                                    ",
"                                              .Xh.2.4.O.O.G m x x h G +.8.!.                                                    ",
"                                              $X.Xh.8.-.+.o.o.m x n o.f.!.                                                      ",
"                                                2X.Xl.8.;.#.o.M M +.l.>X                                                        ",
"                                                  1X+XK.l.h.f.8.f.z.                                                            ",
"                                                                                                                                ",
"                                                                                                                                ",
"                                                                                                                                ",
"                                                                                                                                ",
"                                                                                                                                ",
"                                                                                                                                ",
"                                                                                                                                ",
"                                                                                                                                ",
"                                                                                                                                ",
"                                                                                                                                ",
"                                                                                                                                ",
"                                                                                                                                ",
"                                                                                                                                ",
"                                                                                                                                "
};
