/* XPM */
static char *d67eb1a027894f848b1f7f237e26b146oaQEbUpT8HmzGeZJ[] = {
/* columns rows colors chars-per-pixel */
"64 64 231 2 ",
"   c None",
".  c #502D1C",
"X  c #594D21",
"o  c #525B2A",
"O  c #5B5C2A",
"+  c #595424",
"@  c #565B2D",
"#  c #635C2C",
"$  c #695D2E",
"%  c #685726",
"&  c #684C3E",
"*  c #635D32",
"=  c #695B3A",
"-  c #735C37",
";  c #7C5F2C",
":  c #5A622D",
">  c #54602F",
",  c #5D6634",
"<  c #6D632D",
"1  c #6B6A2D",
"2  c #67672C",
"3  c #71642D",
"4  c #746B2D",
"5  c #7B6C2C",
"6  c #766926",
"7  c #78722C",
"8  c #646333",
"9  c #6C6331",
"0  c #6C6C34",
"q  c #6C633B",
"w  c #6A6B36",
"e  c #736432",
"r  c #7B6633",
"t  c #746C33",
"y  c #7C6C33",
"u  c #73643B",
"i  c #7D633C",
"p  c #7D6C3D",
"a  c #71683D",
"s  c #6C7334",
"d  c #747333",
"f  c #7C7333",
"g  c #7C7933",
"h  c #787638",
"j  c #5C474A",
"k  c #5B4858",
"l  c #674E4B",
"z  c #695447",
"x  c #72544A",
"c  c #765947",
"v  c #754C5B",
"b  c #645152",
"n  c #6C5459",
"m  c #765A56",
"M  c #624B55",
"N  c #796843",
"B  c #7C6154",
"V  c #5F4968",
"C  c #644E62",
"Z  c #6A5366",
"A  c #735363",
"S  c #76566E",
"D  c #7C5C69",
"F  c #6C5473",
"G  c #7A5976",
"H  c #7D616C",
"J  c #7A6270",
"K  c #8E5B35",
"L  c #826C2C",
"P  c #886725",
"I  c #916C22",
"U  c #916B2F",
"Y  c #84732B",
"T  c #8A772C",
"R  c #97732B",
"E  c #836D33",
"W  c #8A6C37",
"Q  c #836C3A",
"!  c #896A3A",
"~  c #966736",
"^  c #837335",
"/  c #8B7535",
"(  c #837B34",
")  c #8B7B34",
"_  c #84733A",
"`  c #837B3B",
"'  c #8A7B3C",
"]  c #8D723E",
"[  c #937C35",
"{  c #9B7B33",
"}  c #967838",
"|  c #A47A26",
" . c #A67827",
".. c #A67B37",
"X. c #B37C32",
"o. c #865B4B",
"O. c #855A5A",
"+. c #985A5E",
"@. c #9A5E47",
"#. c #A75B4D",
"$. c #876845",
"%. c #946647",
"&. c #897A43",
"*. c #937A46",
"=. c #866655",
"-. c #9A6957",
";. c #A6684A",
":. c #845B64",
">. c #8B5D68",
",. c #835C7A",
"<. c #8A5C76",
"1. c #915E74",
"2. c #876166",
"3. c #966966",
"4. c #83627D",
"5. c #8C6375",
"6. c #9A6978",
"7. c #8B7177",
"8. c #A37271",
"9. c #7C843A",
"0. c #8A812E",
"q. c #978229",
"w. c #8D8336",
"e. c #83813C",
"r. c #8D833C",
"t. c #8A873A",
"y. c #928237",
"u. c #9B8333",
"i. c #94853B",
"p. c #938C3B",
"a. c #9A8B3C",
"s. c #9B853A",
"d. c #98933F",
"f. c #8E963F",
"g. c #AB832D",
"h. c #A68525",
"j. c #B48929",
"k. c #B79A2B",
"l. c #A68A34",
"z. c #A58B3A",
"x. c #AB8D3A",
"c. c #A78637",
"v. c #B58938",
"b. c #A4923D",
"n. c #AA9838",
"m. c #BA9C33",
"M. c #B59539",
"N. c #BDA438",
"B. c #BBA72C",
"V. c #C59838",
"C. c #C99133",
"Z. c #C3AC33",
"A. c #C9AA38",
"S. c #D2A536",
"D. c #C9B237",
"F. c #CEB239",
"G. c #CFB938",
"H. c #D7B83A",
"J. c #D0AE2D",
"K. c #DAC43A",
"L. c #E9D43F",
"P. c #E0CB3E",
"I. c #8A8844",
"U. c #9A8543",
"Y. c #9C8944",
"T. c #968548",
"R. c #9D9543",
"E. c #9D9B46",
"W. c #A78D46",
"Q. c #A29244",
"!. c #AB9B44",
"~. c #A49549",
"^. c #A99743",
"/. c #B29B4C",
"(. c #B79746",
"). c #B99952",
"_. c #BA8E40",
"`. c #AAA149",
"'. c #AAA544",
"]. c #BAA846",
"[. c #ABA254",
"{. c #BAA956",
"}. c #BFB24D",
"|. c #B8876C",
" X c #BDAC6C",
".X c #C99845",
"XX c #C88E41",
"oX c #C6AC47",
"OX c #D3B949",
"+X c #C6AC52",
"@X c #C7B857",
"#X c #D2BA56",
"$X c #D1B048",
"%X c #C59760",
"&X c #C8BA66",
"*X c #BED878",
"=X c #DCC544",
"-X c #D8C75C",
";X c #C2C05D",
":X c #E7D457",
">X c #E9D14C",
",X c #ECE04B",
"<X c #F2E04D",
"1X c #D1CB6B",
"2X c #E0CE64",
"3X c #E8D876",
"4X c #EBD56A",
"5X c #F3E368",
"6X c #EEE47C",
"7X c #F4E87A",
"8X c #7A5A86",
"9X c #865E84",
"0X c #896688",
"qX c #956887",
"wX c #966A96",
"eX c #9A7498",
"rX c #8A6395",
"tX c #A26A8A",
"yX c #A2779A",
"uX c #A7758D",
"iX c #A476A3",
"pX c #B9848B",
"aX c #B48D98",
"sX c #A98296",
"dX c #CD9382",
"fX c #D9B282",
"gX c #D3D186",
"hX c #EADA88",
"jX c #E0C88D",
"kX c #F7EA97",
"lX c #F8EAA3",
/* pixels */
"                                                                                                                                ",
"                                                                                                                                ",
"                                                                                                                                ",
"                                                                                                                                ",
"                                                                                                                                ",
"                                                                                                                                ",
"                                                                                                                                ",
"                                                                                                                                ",
"                                                                                                                                ",
"                                                      0.T I | j.h.I U [ {                                                       ",
"                                              '.R.9.9.d 4 6 6 T U Y R c.{ { g.|                                                 ",
"                                            n.t.9., h p.g 7 g ( 6 e c.x.T L L Y q.n.                                            ",
"                                          '.h , > , 9.`.R.E.t.w.1 h M.[ 4 3 1 1 4 0.].                                          ",
"                                        f.9.d , > , ` Y.E.@X'.'.p.b.x./ t 1 1 2 2 4 a.@X                                        ",
"                                      > 2 s t.0 , w I.].+X:X-X:X-X].].^.( t 7 g 0 _ _ T.&X                                      ",
"                                    + o : 0 ` R.` &.~.#X3XkXkXkXkX3X:XoXY.e.a.w.s ( Q N &.{.                                    ",
"                                  f O o > s d.b.!.[.&XhXlXlXlXkXkXkX5X-X}.`.~.r.g f t i p T.                                    ",
"                                  ( o o > 0 p.}.-X3XhX3X4X4X5X5XkX6X5X&X[.`.}.E.f d u _ p a q                                   ",
"                                i.8 + O : 4 ) @X2X&X{.).+X$XOX:X5X7X3X&XI.w e.`.d.f t ) p 8 * e                                 ",
"                                ` * * # 5 ) Y.-X{.W.T.U.(.$X=X:X7X6X3X1XR.d d b.n.i.y 3 5 < * i                                 ",
"                                f 8 9 e ^ U.@X/.' ' &.U.W.).#X3XjXjXfX X}.i.) ) y.z.( $ y e * u %.                              ",
"                              i.9 * 9 y / /.{.) r ^ [ *.|.uXuXaXaXsXsX7.=.Q [ f y ( y.3 u = = - $.                              ",
"                              ( 8 8 8 f } +Xz.p e Q $.7.rXwXeXyXsXeX8XJ x j N ( 9 9 ^ y = u ! - Q                               ",
"                              w.8 * p h W.].y e r $.H G 0X5.0XwXeXeX8XJ Z C C B y 9 t y $ Q $.i i                               ",
"                              p.2 w g N /./.$ $ r m D ,.<.:.D 2.8X8XJ B b C V n Q < 9 f E E r &.$.                              ",
"                              i.d I.E.I.!.Q.$ y ] m m c =.x l n J J Z b b b k j = e $ 4 6 # - Q N                               ",
"                              w.g E.E.` a.s.< E &.z B B v v v G 8X8XF Z b b j j z e * 1 5 # - q a                               ",
"                              w.7 e.g 0 y.) < 5 Q z c n G G 9X0X8X8X8XF b = z k n e # 6 Y # * q u                               ",
"                              U.d d h d y.s.< y ! & c v 0X0XtXyXwXrX8XF b c c Z H y 8 4 T 5 p u p                               ",
"                                _ t Y.&.b.s.y L E x v G 9XwXwXwXiXrX,.:.x =.O.4.5.p < ) 7 Y } W N                               ",
"                                T.Y.Y.R.^.s./ 5 / =.S ,.<.5.9X<.tXtX<.+.3.5.3.5.2.< 4 [ 3 6 r W *.                              ",
"                                ).*.T.~.R.} [ r E %.O.:.2.=.O.O.1.1.O.;.#.-.-.+.K % ( T O + % W                                 ",
"                                W.*.*.Q.' ) z.} W ~ %.o.=.o.o.O.<.:.v o.#.%.-.K K P [ 6 + X X -                                 ",
"                                  Y.' ' _ } z.x...R ..%.-.3.6.tX1.<.<.>.o.@.K ~ ~ _.q.Y 6 + . .                                 ",
"                                    i.' ' z.l.M.V.g.g.W.|.pXdXuXuXtXtX1.%.~ ~  .XXXXl.q.u.% .                                   ",
"                                    x.W.^.x.c.C.A.A.k.k.M.%XfXdXdX8.+.;.! { x..XC...z.l.q.+                                     ",
"                                      $X].z.l.M.v.Z.=XZ.Z.N.A.M...U ...X{ M.$XC.c.[.@X@XM.%                                     ",
"                                        =Xn.k.V.M.m.B.OX=XK.H.F.N.M.j.S.v.g. .I {.*X2X1X X                                      ",
"                                          oXS.H.F.A.m.k.D.G.K.H.A.m.j.j.I P P  .{.gX:X*X                                        ",
"                                              >X>XH.S.k.B.D.G.A.k.q. . . .I K  ./.1X                                            ",
"                                                <XL.H.J.G.K.K.P.Z.h.k.V.V.j.I  .                                                ",
"                                                    H.P.L.,X,X,XK.B.k.J.J.h.                                                    ",
"                                                                                                                                ",
"                                                                                                                                ",
"                                                                                                                                ",
"                                                                                                                                ",
"                                                                                                                                ",
"                                                                                                                                ",
"                                                                                                                                ",
"                                                                                                                                ",
"                                                                                                                                ",
"                                                                                                                                ",
"                                                                                                                                ",
"                                                                                                                                ",
"                                                                                                                                ",
"                                                                                                                                ",
"                                                                                                                                ",
"                                                                                                                                ",
"                                                                                                                                ",
"                                                                                                                                ",
"                                                                                                                                ",
"                                                                                                                                ",
"                                                                                                                                ",
"                                                                                                                                "
};
