/* XPM */
static char *_81184045125415cb9813d1b713d24d1hAHaHW09iKdHJdaN[] = {
/* columns rows colors chars-per-pixel */
"64 64 244 2 ",
"   c None",
".  c #001713",
"X  c #002A00",
"o  c #002835",
"O  c #23373D",
"+  c #064F32",
"@  c #24653F",
"#  c #2A4D2B",
"$  c #55753E",
"%  c #00484B",
"&  c #055B46",
"*  c #075858",
"=  c #125652",
"-  c #2A4E58",
";  c #18694D",
":  c #366A43",
">  c #2B724C",
",  c #07587A",
"<  c #07526D",
"1  c #305D7D",
"2  c #076662",
"3  c #056779",
"4  c #117270",
"5  c #2C6D6F",
"6  c #457957",
"7  c #4C7847",
"8  c #477666",
"9  c #537170",
"0  c #6A7F68",
"q  c #6B7C50",
"w  c #198255",
"e  c #159F54",
"r  c #398659",
"t  c #279756",
"y  c #318C53",
"u  c #0CBB5C",
"i  c #35A65E",
"p  c #1D8565",
"a  c #1A976A",
"s  c #199A7D",
"d  c #12827A",
"f  c #338D6D",
"g  c #379766",
"h  c #38937A",
"j  c #238C71",
"k  c #1AAD68",
"l  c #17BA6A",
"z  c #1DBB76",
"x  c #27BA6C",
"c  c #2AA277",
"v  c #36AA76",
"b  c #24BB7B",
"n  c #28BC74",
"m  c #31B071",
"M  c #4A8959",
"N  c #518852",
"B  c #708B54",
"V  c #75A65D",
"C  c #488A65",
"Z  c #579C6C",
"A  c #4A8874",
"S  c #538774",
"D  c #499672",
"F  c #56B07A",
"G  c #4CAD75",
"H  c #64A277",
"J  c #659076",
"K  c #17C45B",
"L  c #2DC05D",
"P  c #02CC6B",
"I  c #16C76B",
"U  c #18C677",
"Y  c #0FCD78",
"T  c #29C66E",
"R  c #34C669",
"E  c #2AC779",
"W  c #36C77D",
"Q  c #34D17D",
"!  c #2BD476",
"~  c #46DC7D",
"^  c #8C9A5D",
"/  c #97B675",
"(  c #89B368",
")  c #88C169",
"_  c #A6DB79",
"`  c #195888",
"'  c #005996",
"]  c #005C89",
"[  c #097788",
"{  c #1D718B",
"}  c #036998",
"|  c #166998",
" . c #057599",
".. c #156E8F",
"X. c #387E84",
"o. c #297996",
"O. c #3A7B94",
"+. c #257287",
"@. c #0054A4",
"#. c #0368A4",
"$. c #0978A8",
"%. c #1D74A6",
"&. c #0778B6",
"*. c #197CB8",
"=. c #0A66B9",
"-. c #2669A1",
";. c #2378A7",
":. c #2574B5",
">. c #337EA3",
",. c #0278C7",
"<. c #1776C6",
"1. c #0A77D2",
"2. c #2675C7",
"3. c #207FD0",
"4. c #077EF2",
"5. c #217EE5",
"6. c #198C92",
"7. c #3B9782",
"8. c #269497",
"9. c #318995",
"0. c #18AF81",
"q. c #38A385",
"w. c #39B88C",
"e. c #37A493",
"r. c #37B99A",
"t. c #29B78E",
"y. c #1F85A7",
"u. c #1592A6",
"i. c #0B87B6",
"p. c #1889B2",
"a. c #0C81A5",
"s. c #2383AB",
"d. c #259CA5",
"f. c #2885B7",
"g. c #3689BA",
"h. c #2998B4",
"j. c #369AB5",
"k. c #1FB4AC",
"l. c #28BEA6",
"z. c #36B8AB",
"x. c #38A7BA",
"c. c #33AFA6",
"v. c #569B95",
"b. c #4E8F93",
"n. c #739F88",
"m. c #45B787",
"M. c #52BE94",
"N. c #50AA91",
"B. c #68A985",
"V. c #68B094",
"C. c #4797B7",
"Z. c #6398AA",
"A. c #43A5BE",
"S. c #4FABB1",
"D. c #70BCB7",
"F. c #1DC483",
"G. c #1CD08F",
"H. c #2AC888",
"J. c #38C98A",
"K. c #29D989",
"L. c #37DB86",
"P. c #2AC897",
"I. c #2ED999",
"U. c #3BD795",
"Y. c #3CCE9E",
"T. c #16E283",
"R. c #2AE395",
"E. c #37E795",
"W. c #3EE98E",
"Q. c #35CBAD",
"!. c #3AD7A1",
"~. c #32CEAF",
"^. c #43DA8C",
"/. c #44C79A",
"(. c #56CF99",
"). c #46D898",
"_. c #58D698",
"`. c #4CC78A",
"'. c #73CA99",
"]. c #48E586",
"[. c #49E89B",
"{. c #4CF293",
"}. c #61EA98",
"|. c #48C8A5",
" X c #51CAA9",
".X c #49D5A8",
"XX c #47C6B6",
"oX c #58DFB3",
"OX c #6DD5AF",
"+X c #49E5A7",
"@X c #54E9A8",
"#X c #59F6B6",
"$X c #51EFB1",
"%X c #63F7A9",
"&X c #68ECB2",
"*X c #1896C9",
"=X c #1A86D7",
"-X c #189CD6",
";X c #0E86CE",
":X c #2487C7",
">X c #3197D6",
",X c #3196CC",
"<X c #1DAFC2",
"1X c #2BA9CC",
"2X c #39B6C8",
"3X c #2AA6D9",
"4X c #34B1CF",
"5X c #0586EA",
"6X c #1888E7",
"7X c #1496E5",
"8X c #0188F8",
"9X c #1A87F2",
"0X c #1D9FF2",
"qX c #2C8FEB",
"wX c #1BA7E9",
"eX c #1FB5E0",
"rX c #23A6E2",
"tX c #35AAEC",
"yX c #4399CA",
"uX c #43BBCA",
"iX c #46B5CE",
"pX c #68B1CD",
"aX c #50BCF5",
"sX c #4CCBC9",
"dX c #58D5C3",
"fX c #5CD6D3",
"gX c #48C6D2",
"hX c #6FCCD3",
"jX c #53F1C4",
"kX c #69FAC3",
"lX c #7AF1C8",
"zX c #46C2E8",
"xX c #58CEEB",
"cX c #6CD6F4",
"vX c #62E4E9",
"bX c #87BD94",
"nX c #8EC79C",
"mX c #BFDA94",
"MX c #87CEB2",
"NX c #AFEFA5",
"BX c #FAFDB5",
"VX c #90F5CD",
"CX c #93F8E0",
"ZX c #BCFFE8",
/* pixels */
"                                                                                                                                ",
"                                                                                                                                ",
"                                                                                                                                ",
"                                                                                                                                ",
"                                                                                                                                ",
"                                                                                                                                ",
"                                                                                                                                ",
"                                                                                                                                ",
"                                                                                                                                ",
"                                                                                                                                ",
"                                                                                                                                ",
"                                                                                                                                ",
"                                                                                                                                ",
"                                                                                                                                ",
"                                                                                                                                ",
"                                                            5X=XcXpXyX;.                                                        ",
"                                                              :XC.hXhX7.2 o.:X=X                                                ",
"                                                                :.` 4 7.v.5 +.%.=X                                              ",
"                                                                9X3.<.;.O.b.8 = :.qX6X                                          ",
"                                                                  4.5.<.-.O.9 b.` 2.qX5X                                        ",
"                                                                    4.8X5Xi.+.b.` :.6X5X                                        ",
"                                                :.                    8X5X;Xs.9.b.-.;X5X                                        ",
"                                            F NXv.                [ $.$.$. .| { v.5 2.4.                                        ",
"                                            M NXnX= `          Xc XXlXfXXXz.8.2 H = :.9X4.                                      ",
"                                            +.v.S A 5 v._.&X!.+XU.H.P.oX$X!.J.p Z B., >X5X                                      ",
"                                            +.& > H J 7 y i &X#XL.%XjX.XH.L.).v F N...*.i.                                      ",
"                                            7.w.t y S 9 C w t G `.M.7.q.m.).[.W m 4 9...#.3.                                    ",
"                                            _.^.%X_.> A C y D g g > ; a j a x m `.j 4 Z.C.;.2.=.                                ",
"                                          /.E ! K.K./.m.v G g g a v b H.z e e t (.CXOX7.pX- v.hX                                ",
"                                          .XE.R.I.G.F.J.w.w v c c b l I z x i t D CXVXf & ; Z ZX                                ",
"                                        W @XkX+X+XU.+XJ./..X).b J.J.Y U H.v F V.V.D VX'.r : N B.yX                              ",
"                                      m.x ].n U.k I.K.[.J.#X#XE.+X#X$XjXkX(.N 7 6 > nX'.@ C : ; s.                              ",
"                                    s.9.@XQ T E ! E.P Y K [.R.K.J.#XR.P.@Xg ( B B # H V.B.> X.g.3.                              ",
"                                  9X<.,XdXw.~ T {.E.T.P K {.K.H.l [.F.F.&Xr mXBX^ $ N H bXS C.>X6X9X                            ",
"                                    6X=X..e.m.}.U.F.U U ! W.Q R ~ ~ I L.`.M B / ) _ V J / 6 | >X&.&.                            ",
"                                    aXtXs.% q.`.w.H.z {.[.n R R ].! ! {.OX+ 7 X ( ) ( ^ B 5 O.%.x.2Xh.                          ",
"                                      *X3XvX.Xb t.H.z @XL.K R ~ {.U U.&Xf & + + A n.J q 9 1 * N.(.oXdX                          ",
"                                      i.a.u.z.0.I.P.I.H.u U T %XI [..X4 o . j N.O.5 O - 1 +.* m.&Xw.Q.c.                        ",
"                                        iX9.3 sXdXl.+XH.Y K.U $X).t.4 % < >.f.s.o.1 o - Z.pX9.q.VX^.r.fX1X                      ",
"                                          8.y.x.c.0.r.r.!.Q.l.XX.Xs 8.yX,Xg.,X*.j.S.D.MXv.S.j.3 w./.c.sX1X                      ",
"                                            } ] [ < , 3 8.d.iXd.c r.p.#.&.' }  .8.&X}.F OX6.p.tX6.sXgX4X&.                      ",
"                                            :Xf.pXS.-.-.;...] , & 4 ' =.=X;Xa.3 2 lX}.R _.S.i.3X1XzXzX-X,.                      ",
"                                            >XiXgXcX,X:X<.=.;.hXe.{ @.5.tXrX2XsX[ z.J.H.Q.vX<X*X&.;X                            ",
"                                            >X4X4XcX4X;X,.,.s.dXhX2X3.qX0X-X4XiXp.u.l.Q.Q.<X3X-X                                ",
"                                                    &.,.7XwX<Xk.cXxXtXwX1.5X6X1.7XeXeX4XvXgXrX                                  ",
"                                                                                         . .                                    ",
"                                                                                                                                ",
"                                                                                                                                ",
"                                                                                                                                ",
"                                                                                                                                ",
"                                                                                                                                ",
"                                                                                                                                ",
"                                                                                                                                ",
"                                                                                                                                ",
"                                                                                                                                ",
"                                                                                                                                ",
"                                                                                                                                ",
"                                                                                                                                ",
"                                                                                                                                ",
"                                                                                                                                ",
"                                                                                                                                ",
"                                                                                                                                ",
"                                                                                                                                ",
"8X8X8X                                                                                                                          "
};
