/* XPM */
static char *_6f1110b35544114b1a343b00e821e97WrqNhRucCMX2Nc1M[] = {
/* columns rows colors chars-per-pixel */
"64 64 185 2 ",
"   c #2B4E89",
".  c #2C4F8B",
"X  c #2D5497",
"o  c #335CA2",
"O  c #4E7CCD",
"+  c #3762AB",
"@  c #2E579D",
"#  c #2D569D",
"$  c #2D569B",
"%  c #2C508E",
"&  c #2C4F8A",
"*  c #2D5598",
"=  c #2D559A",
"-  c #2D569A",
";  c #2D569C",
":  c #325CA4",
">  c #4D7BCC",
",  c #335DA4",
"<  c #2C4F8C",
"1  c #2C508C",
"2  c #2B4E8A",
"3  c #325A9F",
"4  c #4D7CCC",
"5  c #3761AA",
"6  c #2B4F8A",
"7  c #3660A8",
"8  c #5382D5",
"9  c #5281D4",
"0  c #325CA3",
"q  c #2B4F8B",
"w  c #305594",
"e  c #4D7AC9",
"r  c #4E7DCE",
"t  c #3660A9",
"y  c #2D5496",
"u  c #2D5599",
"i  c #2E569B",
"p  c #3661AA",
"a  c #325BA1",
"s  c #2C508D",
"d  c #2D5498",
"f  c #2C518E",
"g  c #305492",
"h  c #365C9E",
"j  c #5281D2",
"k  c #4F7DCD",
"l  c #355C9D",
"z  c #355B9B",
"x  c #4E7BCB",
"c  c #5381D3",
"v  c #5281D3",
"b  c #315BA2",
"n  c #345A99",
"m  c #4D7CCD",
"M  c #315A9F",
"N  c #2B4F8D",
"B  c #4D7BCB",
"V  c #305593",
"C  c #2B4E88",
"Z  c #325BA3",
"A  c #4D7BCA",
"S  c #4E7BCA",
"D  c #517FD0",
"F  c #4D7AC8",
"G  c #315695",
"H  c #325BA0",
"J  c #2D579D",
"K  c #355FA7",
"L  c #4E7CCC",
"P  c #3960A2",
"I  c #345A9C",
"U  c #355A9B",
"Y  c #355B9C",
"T  c #315694",
"R  c #325CA2",
"E  c #4E7DCF",
"W  c #4C7ACA",
"Q  c #315AA1",
"!  c #2D518F",
"~  c #305491",
"^  c #315593",
"/  c #5280D1",
"(  c #5382D3",
")  c #345A9B",
"_  c #3A61A4",
"`  c #4C7AC9",
"'  c #335DA5",
"]  c #335CA4",
"[  c #305592",
"{  c #5180D2",
"}  c #5280D2",
"|  c #3A65AF",
" . c #3B66B1",
".. c #335CA3",
"X. c #365FA6",
"o. c #4F7ECF",
"O. c #325BA2",
"+. c #355C9F",
"@. c #4E7CCB",
"#. c #365C9D",
"$. c #355FA6",
"%. c #355EA5",
"&. c #2C4E89",
"*. c #355B9D",
"=. c #3761AB",
"-. c #3560A8",
";. c #315AA0",
":. c #345B9C",
">. c #345A9A",
",. c #2B4F8C",
"<. c #345999",
"1. c #355A9A",
"2. c #3A65B0",
"3. c #2E579E",
"4. c #365D9F",
"5. c #315797",
"6. c #2E569C",
"7. c #2E579C",
"8. c #2D508D",
"9. c #4C79C7",
"0. c #3A65AE",
"q. c #305696",
"w. c #305595",
"e. c #4975C1",
"r. c #5180D3",
"t. c #2C5599",
"y. c #2E569A",
"u. c #3961A5",
"i. c #315796",
"p. c #2E589E",
"a. c #355C9E",
"s. c #4A76C3",
"d. c #4F7DCE",
"f. c #5282D4",
"g. c #4E7CCE",
"h. c #5686DA",
"j. c #5787DB",
"k. c #2C4F89",
"l. c #365FA7",
"z. c #5686DB",
"x. c #5686D9",
"c. c #2E5599",
"v. c #3961A4",
"b. c #325798",
"n. c #4A78C8",
"m. c #305695",
"M. c #3661A9",
"N. c #2D559B",
"B. c #3762AC",
"V. c #315798",
"C. c #507ECF",
"Z. c #32589A",
"A. c #31599E",
"S. c #315696",
"D. c #4F7DCF",
"F. c #5180D1",
"G. c #5383D6",
"H. c #3A66B0",
"J. c #4D7ACA",
"K. c #4A77C4",
"L. c #3761A9",
"P. c #4A76C2",
"I. c #355EA4",
"U. c #3B66B0",
"Y. c #365C9C",
"T. c #2C5497",
"R. c #2C5190",
"E. c #365DA0",
"W. c #4A78C6",
"Q. c #4D7BC9",
"!. c #3E66AC",
"~. c #345B9D",
"^. c #2D5597",
"/. c #3960A4",
"(. c #3B62A6",
"). c #355D9F",
"_. c #2B508D",
"`. c #315594",
"'. c #3960A3",
"]. c #4A77C7",
"[. c #3560A9",
"{. c #5585D8",
"}. c #3862AA",
"|. c #325797",
" X c white",
/* pixels */
"      . X o O + @ # $ % & . * = = = = - ; @ ; : > , = = = * .     & < 1 <   2 3 4 5 - X .     & < 1 1 1 < 6   < 7 8 9 0 ; - <   ",
"& . . & q w e r t @ - y . & . < < < < % u - i p O a s < < . & & . % * - d f g h j k l w &   q s * - = - * f g z x c v + b u .   ",
"s * u % . & n x m M N . & & . < < < . & . q w B e V C   q q q s d $ ; @ Z 7 A S D D S F z G H a @ ; J # @ K B L A P F L B I &   ",
"a @ ; $ * s   U S h g & . % * - - - * s < q G e Y V T G H o R o 0 @ @ t O E B l V V z B B W O O 5 Z @ @ t r r 5 Q ! ~ U S S z ^ ",
"O 5 Z @ @ M G Y / ( S ) u $ ; @ @ @ ; $ = - 7 x _ F e ` > > > O O t t r r p Z u s q 1 a ' ] 5 m r m p t r r t @ ; u % [ _ j L ` ",
"{ r m p t 4 A A D } 9 L t @ ; @ @ @ @ # @ t r { L B l H , , : p r 9 9 r t @ ; ; $ * s d ; ; @ Z 5 m r 9 8 | @ ; J ; M ` S A p : ",
"0 p O r 9 8  ...G T X.r r t @ ; ; ; ; @ t r r p : M 1 s = ; ; @ t o.9 t @ ; @ ; $ * < s * $ ; ; @ Z p r 9 O p O.i * +.@.#.V u ; ",
"; @ Z p r 9 O $.s   s %.r r t @ @ 0 : p r r t @ = s   < - @ @ # @ p r p @ ; $ * % . & &.. % * - = = @ Z p m E B *.Y S e ~ C s * ",
"- = = @ Z =.9 r M s 6 s %.r r t p r 9 v O -.@ # - <   < * - - - = ;.B r t u s . &.&.. < . & . < < s * = @ Z 7 L / j L :.s < & . ",
"< < s * = 0 { L a y .   s X.9 9 O { 8 8  .0 @ ; u .   & . < < < < 1 >.@.O I &   . % * - * s < < . & . % u d s >.j o.-.$ = y .   ",
"& . & . ,.H A z 1 . &     V S 9 + 0 p 4 r m t u s &     & . < < < . & <.S e g s * $ ; @ ; $ - - * s q   . q & 1.k 2.3.# $ % &   ",
"% X % 1 g 4.e ^   . < < . & z A : $ @ Z p E O ) &   . < % * - - - u s & z e 5.d 6.@ @ 7.@ @ J ; @ a H w 8.g z S j > 0 ; * . & . ",
"= ; = ;.` L 9.g q X - - u s ^ B 5 @ ; = - $.L S >.s d - $ ; @ @ @ ; u s ^ A t 7.; @ @ ; ; ; @ Z 5 O r B 0.A L F _ B R d s & . * ",
"' , : + r 5 q.s & s u @ 6.* q.e 4 a d % < 1 >.S L 7 Z @ # @ @ @ @ @ ; d w e r t @ ; ; @ 0 : 5 m r m 2.m r O t w.G e.:.<     s = ",
"> m r.8 { 0 t.* .   s - J ; y.u.x i.q &     & >.B E O t @ ; ; ; @ @ @ - % >.j o.p : : 5 O m m O 5 Z p.0 , 0 @ = u a.s.z V G a , ",
": p r 8 9 + Z i q   s - @ Z p L F g   < < &   1 M p r r p : 0 @ ; ; ; @ M a./ j B B > O O 5 : 0 @ ; ; ; ; ; ; @ ; M A / D B B > ",
"; @ Z p 4 r O 7 w 1 * @ t m r B I & . * u % . 6 s u t O O m O 5 Z @ @ t m O A U G o ' , 0 @ ; ; ; @ ; $ - $ ; $ * ! P ( d.p ] , ",
"@ ; ; @ Z 5 B L e I i t r r p Z u . < - @ $ * s & s u 0 ] 5 m r 4 t t r r 5 ;.1 q = ; ; ; ; @ @ ; $ * % < % X % q g F S I - ; ; ",
"@ ; $ = = u w z L L | O r t @ ; - < . * ; @ ; u s & s d = @ Z + 9 f.f.v t @ = . . u 6.@ @ ; $ - * % . &   & .   &.z S z 1 = @ @ ",
"- * s < < .   < K m o.9 | @ ; ; - < &.% $ @ @ ; u s & . s u ; Z g.h.j.f.t @ $ % & s u - - * % < .   k.. q q 1 g z @.B V q * - - ",
"< < < . &.    . u Z p r r p : Z u .   < - @ @ @ ; u s . & s * - l.9 z.f.r 7 - y . & . < < .     . < s u a O.7 B L m t u < . < < ",
"< s u u % . & & s d $ t r 9 9 L ) &   s $ @ @ @ @ ; $ * s 2 1 w h j O | r O I 1   & . < < < < % * = $ t O O O O 5 Z @ = <       ",
"- $ ; ; $ * % . & . s u -.k x.c S >.s * ; @ @ @ @ @ @ ; u f >.F S F ) c.$.L S >.< s * - - - - $ ; @ t r r p : 0 @ ; J - <   & . ",
"@ @ @ @ @ ; $ * % . & s X l e v.@.L 7 Z @ ; @ @ @ @ @ @ ; a B L a.w . . 1 >.S L $.$ ; @ @ @ @ @ ; 0 O r t @ ; ; ; @ 6.u . & s * ",
"@ @ @ @ @ @ @ ; $ * s 6 2 V 9.b.$.O r O t @ ; ; @ @ @ ; ; : O p $ d .     & >.O E t @ ; @ @ @ @ ; , O p @ ; @ @ ; $ * s & . u ; ",
"@ @ @ @ @ @ @ @ @ 6.u f g #.A a = Q 5 O n.t Z @ ; ; ; @ Z + O : ; $ % & &.  < %.r r t @ ; @ @ @ ; : 4 p ; ; - - * % . &   % $ @ ",
"@ @ @ @ @ @ @ ; ; ; 7.K B L 9.w q s u Z p r r p : , : 5 m r > 0 ; - y .       s %.r r t @ ; ; ; @ p 9 o.p Q f q . &.&.. % u ; @ ",
"@ @ @ @ ; ; ; @ 0 : p r E t m..   & s u t 9 9 m > > > O O 5 Z @ u % . & & < . 2 s %.r O 0 ; @ Z p r 9 { L B z g 1 q s * $ ; @ @ ",
"; ; ; ; @ 0 : p m m O O t 6.* s &     w B L M.: , , , , 0 @ ; - %   & . % u u s   s X.m : N.Z > r m p a l F S A 7 ;.i ; # ; ; ; ",
", ' , : p r 9 8 v =.: 0 @ ; @ u . & q T F l u ; ; ; ; ; ; ; @ - < &.s * $ ; 6.u s   G B B.: + r + Z @ = 1 g l B E m p Z p.0 , , ",
"B W B > m r.9 8 v t ; ; ; ; $ * . . y V.9.^ 1 * $ ; @ @ @ ; $ * . . u 6.@ @ @ ; u 1 V C.L B O > Z ; J - < q u Z p O 9 O 2.m O > ",
"o Z...' , : : p r r p Z @ u % . &.< = ..` G q < % * - - - * % . &.< - @ @ @ @ ; ; u l S 4.H , 0 @ J 6.u . . * i 0  .8 9 r m p : ",
"; = ; ; ; ; ; @ t m O m K f   & . % = : 4 7 y 6   . < < < .   &.. % - @ @ @ ; @ Z p O A g ,.* ; ; $ * s & & q w ` L 4 p : 0 @ ; ",
"@ @ @ @ @ @ ; - i M *.x A g   s * - 6.p 9 d.l g & . < < < < < % * $ ; @ @ ; @ t m r O K f 6 s $ $ % . & & . < z S 4.A.i ; ; ; @ ",
"- - - - - - * % < q & U e S.s u ; @ t r 9 { S e I u = - - - - $ ; @ @ ; ; @ t r r p Z @ * . . * * . & . s u K L A g 6 s * $ ; $ ",
"< < < < < < . k.    & U B ..= ; @ t r r p a l S L t @ ; J @ @ @ ; ; ; @ Z p r r t @ ; J - < & . . &.. * = 0 r f.7 f . & . % X % ",
"& . < < < < < < < 1 >.S B a ; @ t r r t @ = 1 >.x n.t Z @ ; ; ; @ 0 : p m r m t @ ; @ 6.u . & . < < % = ; Z r { 0 = y .   & . & ",
"% * - - - - - = - $.k } >.s u 7 o.8 | @ ; - < 1 Q t n.O p : : : p O 9 v O p b @ ; ; $ * s & . * - = i Z , '  .D.p $ % &   & . < ",
"$ ; @ J ; ; ; @ t r 8 F.z V l L 9 v O p Z c.. . d $ t O r r.9 v 8 h.G.8  .' Z @ ; u % . & &.s = @ Z 5 O O B > r.r l.<   . % u - ",
"J ; ; @ 0 , : p r r H.{ j A e B t t m E J.w   & . s u Z p r 9 9 9 O | > 4 m O t u s k.& . s u Z 5 m r m 5 : : M.x K.>.w u $ ; @ ",
"@ 0 : 5 O O > O m t p 9 o.X.G w i @ Z L.K.>.& . . & s * @ 0 : : : Z p.0 ] p O L ) &   s u Q 5 O r m 5 Z @ ; ; i w >.P.x t @ ; ; ",
"5 > 4 m O 5 : , : t r r %.s   q - J * s >.P.:.u u s & s * = ; ; ; ; ; = = * ) S S >.% u t O r m 5 Z @ ; ; @ @ - q & >.L r p Z @ ",
"8 8  .' 0 @ ; ; Z m r I.s   & % - u s   g B B O.; u s < < s * - - - * % < . & U j L ;.b m r p Z @ ; ; @ ; $ - * <   1 K O r m + ",
"v v > b ; ; @ ; ' E U.S.&   . X * s &   1 X.r B.Z @ $ * s & . < < < . &     C g / G.=.+ o.2.@ ; ; @ ; $ * % < . &   . u Z 5 O O ",
"0 + r 5 @ ; $ = a ` L e n & 6 < . &.& .   V 9.L B Z ; 6.u s . &.          & ~ Y./ } 4 m r.g.p Z @ = d s . &.  . < . & s * @ 0 , ",
"; Z O m Q T.s q 1 ~ z S x >.&   . < % X % 1 g #.L 5 @ ; ; $ * % < < < < 1 >.e L F Y H : p m r O t V.w &   q s * - * s < R.$ ; ; ",
"; ; 7 L h G T T ^ g 1 >.x e g s u - $ ; $ * ,.g e O 0 ; @ @ ; $ - - - = ;.B r t m.& s * @ O.7 B A e F z G M i ; J ; $ - - ; @ @ ",
"@ Q E.} j A ` ` B B %.< 1.S l u ; @ @ @ @ 6.* 1 U B ' ; @ @ @ @ J ; ; @ p r p 6.* s & s u = f g ^ l B B B O 5 Z @ ; J @ @ @ ; ; ",
"+ > S D L 7 : ] 5 g.W.>.>.Q.B 0 ; @ @ @ @ @ $ f U B ..; @ @ ; ; @ 0 : p r m Z ; @ u .   s y .   s u 0 ] 5 m r m 5 Z @ ; ; ; @ Z ",
"O B l G [ f = ; @ Z 7 K.S !.L : ; @ @ @ @ @ ; Q B F m.d ; ; @ Z 5 O m O O t @ ; $ * <   & . & . y - ; ; @ Z 5 m r m p : : : 5 O ",
", Z i X q . * 6.J ; $ a.B @.{ p @ ; @ @ @ ; @ 5 d._ G q.i @ t m r m 5 : 0 @ ; u % . & & . < . & . % * - - ; @ b p O v 9 r.m m { ",
"; ; J $ % & s u - - = u ;.+.S r t @ ; @ @ ; Z m { J.e B p t r r p Z @ ; ; J $ %   & . % * - * % . & . < s * i O.'  .8 8 r p : : ",
"; ; ; = y . & . < < < % d u ~.S r t @ ; ; @ p r + O.+.e L 9 9 t ; ; ; @ @ 6.* . & s * $ ; @ ; $ * s < . & q w ` A J.> p Z @ ; ; ",
"' ' ..q.1 2   & . < . 6 s d ^./.c r Z ; @ t r O Z $ ^.V z k 9 t @ J ; $ - u s & . * 6.@ @ 7.@ @ ; $ - * s q S.x (.4.7 6.$ @ 0 ' ",
"` ` B e >.1 < % * = d f [ G l @.j.8 + : p r r t @ $ %   < $.r m O.= * % < . &.  % $ @ @ @ @ @ @ @ @ @ ; $ = a B A e A +.a p m B ",
"T ^ l L L $.- = @ 0 : 7 B A F D F.D 4 > O O t @ ; * .   . u p r 7 f . &.  . < s u ; @ @ @ @ @ @ @ @ @ @ @ J 3.0 R ).B S { 9 S Y ",
"q s u t r r p : p m 4 m O t 5.G ^ G a , , 0 @ # $ % &   & _.3 { L g C q s * - $ ; @ @ ; ; ; ; ; ; ; ; ; @ @ ; ; $ u A.h } @.<.& ",
"= = ; @ t O O B r 9  .' Z @ = d s   s * ; ; ; 6.* . & . q & Y ( ( Y.G M i ; @ @ @ ; ; @ 0 , , , , , 0 @ ; ; ; @ $ % 6 `.S '.1 q ",
"' 0 i u i a , ] p r O -.; ; ; ; d q   s u 6.7.u s   q u M *.S / D F B O t @ ; ; ; @ Z 5 O O > > > > ].t ] 0 @ ; = <   g F x 7 O.",
"B B l w 1 ,.* ; ; t 9 o.p ] ' ' ..w &   s d d % g T G 7 m O B *.V G X.r r t @ @ Z 5 m r m 5 : , , ] t ].O O 5 Z i <   . P j L ` ",
"Y F L e U g % u b + v j A ` ` ` B e z ^ T G G z e B W O O 5 Z u s   % K r r t t m r m 5 Z @ ; ; ; ; @ 0 5 m r O K f < >.S S z ^ ",
"& m.t r j Q.U *.B L F U ^ T T ^ l B B ` A D D @.m 5 ] , 0 @ ; ; u . . u t r 9 9 r p Z @ ; ; @ @ @ @ J ; @ Z p r m a $.L L ) &   ",
"% d 6.[.D.{.B F F z ~ &   q q s u Z ' : p o.8  .: @ ; ; ; ; @ ; u . & s u K D.9 p @ ; ; @ ; - = = = = = - ; @ p g. .g.r -.u .   ",
"- ; ; @ =.r }.|.^ &     . * = - ; ; ; ; @ 5 v m b ; @ @ @ @ @ $ % &   & . f L.m : ; @ @ @ $ % 1 1 1 1 1 % $ ; : { 8 v 5 @ = <   "
};
